<svg width="16" height="16" viewBox="0 0 16 16" fill="none" xmlns="http://www.w3.org/2000/svg">
<path d="M0 2C0 0.895431 0.895431 0 2 0H14C15.1046 0 16 0.895431 16 2V14C16 15.1046 15.1046 16 14 16H2C0.895431 16 0 15.1046 0 14V2Z" fill="url(#paint0_linear)"/>
<path fill-rule="evenodd" clip-rule="evenodd" d="M12.8987 9.43052C12.4591 10.7734 10.7958 12.1199 7.62808 12.723C6.5073 12.9364 5.46911 13.0303 4.50459 12.9914C3.5258 12.9594 3.01719 12.7927 3.00044 12.4907C2.98958 12.2955 3.12032 12.0423 3.40599 11.7187C3.69167 11.395 3.98202 11.2158 4.24902 11.1725C4.40275 11.1478 4.60044 11.1919 4.71328 11.228C4.7721 11.2412 4.90032 11.2906 5.02674 11.3392C5.14097 11.3832 5.25373 11.4266 5.3125 11.4423C5.31761 11.3505 5.33201 11.1803 5.35106 10.9552C5.39753 10.406 5.47166 9.52972 5.50599 8.66853C5.53987 7.87827 5.56027 7.08984 5.55279 6.29281C5.54487 5.47134 5.54688 5.01289 5.55897 4.927L4.67038 5.31972C4.48191 5.39743 4.23414 5.49262 4.11569 5.50354C3.92239 5.52089 3.79771 5.40888 3.79192 5.2736C3.77837 4.96476 4.44636 4.43885 5.41734 3.9703C6.38553 3.50877 7.84818 3.0971 9.14234 3.0168C10.2513 2.94797 11.1092 3.09174 11.73 3.42844C12.3353 3.7569 12.6143 4.21311 12.5893 4.81914C12.5554 5.63409 12.0021 6.32516 10.8991 6.91235C11.8925 6.96775 12.4878 7.13209 12.8709 7.89062C13.1402 8.42371 13.1079 8.97521 12.8987 9.43052ZM8.23137 4.26789C9.11994 4.19848 9.71612 4.279 10.045 4.5163C10.3819 4.73765 10.5385 5.02811 10.531 5.37587C10.5117 6.27311 9.45397 6.92949 7.76153 7.33886L7.91336 5.69585C7.99117 4.99228 8.04356 4.51859 8.05643 4.28158L8.23137 4.26789ZM10.311 8.28611C9.94996 7.99472 9.39306 7.89559 8.64594 7.99195C8.31673 8.03246 7.98074 8.1151 7.67422 8.24441L7.63263 8.62891C7.54938 9.5033 7.44904 10.4823 7.34357 11.5908V11.7148C7.4662 11.7148 7.6576 11.6954 7.6576 11.6954C7.81525 11.6758 7.94753 11.6594 8.06212 11.6392C9.027 11.4685 9.71894 11.1759 10.1552 10.7494C10.5893 10.3249 10.8117 9.87514 10.8239 9.39555C10.8355 8.94199 10.666 8.57255 10.311 8.28611Z" fill="url(#paint1_linear)"/>
<defs>
<linearGradient id="paint0_linear" x1="8" y1="-1.45455" x2="8" y2="16" gradientUnits="userSpaceOnUse">
<stop stop-color="#262D37"/>
<stop offset="1" stop-color="#1C1F24"/>
</linearGradient>
<linearGradient id="paint1_linear" x1="11.9998" y1="3" x2="11.9998" y2="13" gradientUnits="userSpaceOnUse">
<stop stop-color="#FFDD3D"/>
<stop offset="1" stop-color="#FF8410"/>
</linearGradient>
</defs>
</svg>
