<svg width="41" height="41" viewBox="0 0 41 41" fill="none" xmlns="http://www.w3.org/2000/svg">
<path d="M38.3804 40.588C39.5994 40.588 40.5879 39.5995 40.5879 38.3802V2.79569C40.5879 1.57622 39.5995 0.588013 38.3804 0.588013H2.79558C1.57611 0.588013 0.587891 1.57622 0.587891 2.79569V38.3802C0.587891 39.5993 1.57595 40.588 2.79558 40.588H38.3804Z" fill="#3C5A99"/>
<path d="M28.1873 40.588V25.0978H33.3866L34.1652 19.061H28.1873V15.2068C28.1873 13.459 28.6726 12.268 31.179 12.268L34.3756 12.2666V6.86721C33.8228 6.79364 31.9252 6.62927 29.7175 6.62927C25.1086 6.62927 21.9532 9.44257 21.9532 14.609V19.061H16.7405V25.0978H21.9532V40.588H28.1873Z" fill="white"/>
</svg>
