<svg width="136" height="40" viewBox="0 0 136 40" fill="none" xmlns="http://www.w3.org/2000/svg">
<g clip-path="url(#clip0)">
<path d="M130.812 39.9241H5.25144C2.49035 39.9241 0.229004 37.6947 0.229004 34.9728V5.26495C0.229004 2.54297 2.49035 0.31365 5.25144 0.31365H130.812C133.573 0.31365 135.835 2.54297 135.835 5.26495V34.9728C135.835 37.6947 133.573 39.9241 130.812 39.9241Z" fill="black"/>
<path d="M130.812 1.1071C133.138 1.1071 135.03 2.9725 135.03 5.26495V34.9728C135.03 37.2652 133.138 39.1306 130.812 39.1306H5.25144C2.92605 39.1306 1.03385 37.2652 1.03385 34.9728V5.26495C1.03385 2.9725 2.92605 1.1071 5.25144 1.1071H130.812ZM130.812 0.31365H5.25144C2.49035 0.31365 0.229004 2.54297 0.229004 5.26495V34.9728C0.229004 37.6947 2.49035 39.9241 5.25144 39.9241H130.812C133.573 39.9241 135.835 37.6947 135.835 34.9728V5.26495C135.835 2.54297 133.573 0.31365 130.812 0.31365Z" fill="#A6A6A6"/>
<path d="M47.8591 10.4577C47.8591 11.2845 47.6079 11.9468 47.1132 12.4407C46.5444 13.0261 45.8036 13.3207 44.8958 13.3207C44.0282 13.3207 43.2874 13.0212 42.6797 12.4308C42.0707 11.8316 41.7668 11.0964 41.7668 10.2163C41.7668 9.33619 42.0707 8.60092 42.6797 8.00676C43.2874 7.41137 44.0282 7.11182 44.8958 7.11182C45.3278 7.11182 45.7396 7.1997 46.1326 7.3631C46.5243 7.52773 46.8433 7.75053 47.0743 8.02533L46.5495 8.5477C46.1464 8.07856 45.5977 7.84709 44.8958 7.84709C44.263 7.84709 43.7143 8.06494 43.2485 8.50437C42.7877 8.94504 42.5566 9.51567 42.5566 10.2163C42.5566 10.9169 42.7877 11.4925 43.2485 11.9331C43.7143 12.3676 44.263 12.5904 44.8958 12.5904C45.5676 12.5904 46.1326 12.3676 46.5783 11.9282C46.8721 11.6373 47.0391 11.2363 47.0831 10.7238H44.8958V10.0083H47.8139C47.849 10.1631 47.8591 10.3128 47.8591 10.4577V10.4577Z" fill="white" stroke="white" stroke-width="0.16" stroke-miterlimit="10"/>
<path d="M52.4886 7.977H49.7476V9.8585H52.2187V10.574H49.7476V12.4555H52.4886V13.1845H48.9717V7.24792H52.4886V7.977Z" fill="white" stroke="white" stroke-width="0.16" stroke-miterlimit="10"/>
<path d="M55.7558 13.1845H54.9798V7.977H53.2986V7.24792H57.4383V7.977H55.7558V13.1845V13.1845Z" fill="white" stroke="white" stroke-width="0.16" stroke-miterlimit="10"/>
<path d="M60.4341 13.1845V7.24792H61.2088V13.1845H60.4341Z" fill="white" stroke="white" stroke-width="0.16" stroke-miterlimit="10"/>
<path d="M64.6428 13.1845H63.8731V7.977H62.1855V7.24792H66.3303V7.977H64.6428V13.1845Z" fill="white" stroke="white" stroke-width="0.16" stroke-miterlimit="10"/>
<path d="M74.1678 12.4209C73.5739 13.0212 72.8381 13.3207 71.9604 13.3207C71.0778 13.3207 70.342 13.0212 69.7481 12.4209C69.1554 11.8217 68.8604 11.0865 68.8604 10.2163C68.8604 9.34609 69.1554 8.61082 69.7481 8.01172C70.342 7.41137 71.0778 7.11182 71.9604 7.11182C72.8331 7.11182 73.5689 7.41137 74.1628 8.01667C74.7605 8.62073 75.0555 9.35104 75.0555 10.2163C75.0555 11.0865 74.7605 11.8217 74.1678 12.4209ZM70.3219 11.9232C70.7689 12.3676 71.3126 12.5904 71.9604 12.5904C72.6033 12.5904 73.152 12.3676 73.594 11.9232C74.0397 11.4789 74.2657 10.9082 74.2657 10.2163C74.2657 9.52434 74.0397 8.9537 73.594 8.50932C73.152 8.06494 72.6033 7.84213 71.9604 7.84213C71.3126 7.84213 70.7689 8.06494 70.3219 8.50932C69.8761 8.9537 69.6501 9.52434 69.6501 10.2163C69.6501 10.9082 69.8761 11.4789 70.3219 11.9232V11.9232Z" fill="white" stroke="white" stroke-width="0.16" stroke-miterlimit="10"/>
<path d="M76.1443 13.1845V7.24792H77.086L80.0141 11.865H80.048L80.0141 10.7237V7.24792H80.7888V13.1845H79.9802L76.914 8.33969H76.8801L76.914 9.48591V13.1845H76.1443V13.1845Z" fill="white" stroke="white" stroke-width="0.16" stroke-miterlimit="10"/>
<path d="M68.6697 21.8542C66.3104 21.8542 64.383 23.6243 64.383 26.0666C64.383 28.489 66.3104 30.2776 68.6697 30.2776C71.034 30.2776 72.9613 28.489 72.9613 26.0666C72.9613 23.6243 71.034 21.8542 68.6697 21.8542ZM68.6697 28.619C67.3751 28.619 66.2614 27.5656 66.2614 26.0666C66.2614 24.5478 67.3751 23.5129 68.6697 23.5129C69.9642 23.5129 71.083 24.5478 71.083 26.0666C71.083 27.5656 69.9642 28.619 68.6697 28.619V28.619ZM59.3167 21.8542C56.9523 21.8542 55.03 23.6243 55.03 26.0666C55.03 28.489 56.9523 30.2776 59.3167 30.2776C61.6797 30.2776 63.6033 28.489 63.6033 26.0666C63.6033 23.6243 61.6797 21.8542 59.3167 21.8542ZM59.3167 28.619C58.0209 28.619 56.9034 27.5656 56.9034 26.0666C56.9034 24.5478 58.0209 23.5129 59.3167 23.5129C60.6112 23.5129 61.7249 24.5478 61.7249 26.0666C61.7249 27.5656 60.6112 28.619 59.3167 28.619ZM48.1869 23.1453V24.9352H52.5226C52.3957 25.9354 52.0567 26.6706 51.5369 27.1831C50.9041 27.802 49.9184 28.489 48.1869 28.489C45.5188 28.489 43.4294 26.3661 43.4294 23.7357C43.4294 21.1054 45.5188 18.9825 48.1869 18.9825C49.6296 18.9825 50.6793 19.5383 51.454 20.2587L52.7335 18.9973C51.6499 17.9774 50.2085 17.1938 48.1869 17.1938C44.5281 17.1938 41.4531 20.1287 41.4531 23.7357C41.4531 27.3428 44.5281 30.2776 48.1869 30.2776C50.1645 30.2776 51.6499 29.6389 52.8176 28.4407C54.0142 27.2611 54.3871 25.6024 54.3871 24.2631C54.3871 23.8471 54.352 23.4647 54.2892 23.1453H48.1869ZM93.6977 24.5329C93.3449 23.5909 92.2563 21.8542 90.0389 21.8542C87.8416 21.8542 86.0121 23.5612 86.0121 26.0666C86.0121 28.4259 87.8227 30.2776 90.2498 30.2776C92.2123 30.2776 93.3449 29.098 93.8107 28.411L92.3542 27.4542C91.8683 28.1548 91.2066 28.619 90.2498 28.619C89.2993 28.619 88.6175 28.1894 88.1806 27.3428L93.8948 25.0119L93.6977 24.5329V24.5329ZM87.8717 25.9354C87.8227 24.3113 89.1512 23.4795 90.1029 23.4795C90.8487 23.4795 91.4816 23.8471 91.6925 24.3732L87.8717 25.9354V25.9354ZM83.2272 30.0214H85.1056V17.6432H83.2272V30.0214ZM80.151 22.7925H80.0882C79.6663 22.2999 78.8614 21.8542 77.8419 21.8542C75.7023 21.8542 73.7461 23.706 73.7461 26.0802C73.7461 28.4407 75.7023 30.2776 77.8419 30.2776C78.8614 30.2776 79.6663 29.8283 80.0882 29.3208H80.151V29.9249C80.151 31.5353 79.2783 32.4005 77.8708 32.4005C76.7231 32.4005 76.0112 31.5836 75.7174 30.8966L74.0839 31.5687C74.5547 32.6852 75.8015 34.0592 77.8708 34.0592C80.0731 34.0592 81.9314 32.7818 81.9314 29.6736V22.1105H80.151V22.7925V22.7925ZM78.0026 28.619C76.7081 28.619 75.6245 27.5507 75.6245 26.0802C75.6245 24.596 76.7081 23.5129 78.0026 23.5129C79.2783 23.5129 80.2841 24.596 80.2841 26.0802C80.2841 27.5507 79.2783 28.619 78.0026 28.619V28.619ZM102.492 17.6432H97.9994V30.0214H99.8728V25.3313H102.492C104.573 25.3313 106.613 23.8471 106.613 21.4866C106.613 19.1273 104.568 17.6432 102.492 17.6432V17.6432ZM102.541 23.6095H99.8728V19.365H102.541C103.94 19.365 104.738 20.51 104.738 21.4866C104.738 22.4447 103.94 23.6095 102.541 23.6095ZM114.121 21.8307C112.768 21.8307 111.36 22.4199 110.782 23.7258L112.444 24.4128C112.802 23.7258 113.46 23.503 114.155 23.503C115.127 23.503 116.113 24.0786 116.128 25.0949V25.2248C115.789 25.0317 115.063 24.7458 114.17 24.7458C112.38 24.7458 110.555 25.7175 110.555 27.5309C110.555 29.1896 112.022 30.2578 113.671 30.2578C114.931 30.2578 115.627 29.6971 116.064 29.0448H116.128V30.0016H117.937V25.2533C117.937 23.0586 116.275 21.8307 114.121 21.8307ZM113.895 28.614C113.283 28.614 112.429 28.3145 112.429 27.5656C112.429 26.6075 113.494 26.2399 114.415 26.2399C115.24 26.2399 115.627 26.4193 116.128 26.6558C115.981 27.802 114.98 28.614 113.895 28.614V28.614ZM124.529 22.1018L122.376 27.4678H122.312L120.086 22.1018H118.065L121.41 29.6006L119.502 33.7733H121.459L126.613 22.1018H124.529V22.1018ZM107.642 30.0214H109.521V17.6432H107.642V30.0214Z" fill="white"/>
<path d="M10.7107 7.77895C10.4156 8.08345 10.2449 8.55754 10.2449 9.1715V31.0711C10.2449 31.6851 10.4156 32.1592 10.7107 32.4637L10.7835 32.5305L23.2316 20.2637V19.974L10.7835 7.70716L10.7107 7.77895Z" fill="url(#paint0_linear)"/>
<path d="M27.3765 24.3547L23.2317 20.2637V19.9741L27.3815 15.8831L27.4744 15.9363L32.3888 18.6929C33.7913 19.4752 33.7913 20.7626 32.3888 21.5498L27.4744 24.3015L27.3765 24.3547V24.3547Z" fill="url(#paint1_linear)"/>
<path d="M27.4743 24.3015L23.2316 20.1189L10.7107 32.4637C11.1765 32.9465 11.9362 33.0047 12.8 32.5219L27.4743 24.3015" fill="url(#paint2_linear)"/>
<path d="M27.4743 15.9363L12.8 7.71588C11.9362 7.23808 11.1765 7.29626 10.7107 7.77901L23.2316 20.1189L27.4743 15.9363Z" fill="url(#paint3_linear)"/>
</g>
<defs>
<linearGradient id="paint0_linear" x1="22.1264" y1="31.2992" x2="5.50913" y2="14.4432" gradientUnits="userSpaceOnUse">
<stop stop-color="#00A0FF"/>
<stop offset="0.0066" stop-color="#00A1FF"/>
<stop offset="0.2601" stop-color="#00BEFF"/>
<stop offset="0.5122" stop-color="#00D2FF"/>
<stop offset="0.7604" stop-color="#00DFFF"/>
<stop offset="1" stop-color="#00E3FF"/>
</linearGradient>
<linearGradient id="paint1_linear" x1="34.2151" y1="20.1175" x2="9.90969" y2="20.1175" gradientUnits="userSpaceOnUse">
<stop stop-color="#FFE000"/>
<stop offset="0.4087" stop-color="#FFBD00"/>
<stop offset="0.7754" stop-color="#FFA500"/>
<stop offset="1" stop-color="#FF9C00"/>
</linearGradient>
<linearGradient id="paint2_linear" x1="25.1673" y1="17.8452" x2="2.6329" y2="-5.01291" gradientUnits="userSpaceOnUse">
<stop stop-color="#FF3A44"/>
<stop offset="1" stop-color="#C31162"/>
</linearGradient>
<linearGradient id="paint3_linear" x1="7.55892" y1="39.7496" x2="17.6215" y2="29.5426" gradientUnits="userSpaceOnUse">
<stop stop-color="#32A071"/>
<stop offset="0.0685" stop-color="#2DA771"/>
<stop offset="0.4762" stop-color="#15CF74"/>
<stop offset="0.8009" stop-color="#06E775"/>
<stop offset="1" stop-color="#00F076"/>
</linearGradient>
<clipPath id="clip0">
<rect width="136" height="40" fill="white"/>
</clipPath>
</defs>
</svg>
