<svg width="40" height="41" viewBox="0 0 40 41" fill="none" xmlns="http://www.w3.org/2000/svg">
<path d="M11.0472 34.5639L11.652 34.9208C14.193 36.4219 17.1063 37.2158 20.0772 37.2173H20.0836C29.2075 37.2173 36.6332 29.8271 36.6367 20.7442C36.638 16.3422 34.918 12.2035 31.7927 9.0896C28.6672 5.9762 24.5117 4.26045 20.0896 4.25863C10.9588 4.25863 3.5331 11.6478 3.52965 20.7306C3.52844 23.8432 4.4031 26.8745 6.06037 29.4971L6.45429 30.1203L4.78165 36.199L11.0472 34.5639ZM0.000244141 40.9078L2.82565 30.6379C1.0829 27.6322 0.166102 24.2225 0.167537 20.7297C0.171784 9.80209 9.10536 0.911743 20.0841 0.911743C25.4114 0.914033 30.4117 2.97795 34.172 6.72421C37.9318 10.4704 40.0017 15.4499 40 20.7458C39.9954 31.6728 31.0598 40.5649 20.0841 40.5649C20.0832 40.5649 20.0845 40.5649 20.0841 40.5649H20.0755C16.7424 40.5638 13.4674 39.7315 10.5585 38.1521L0.000244141 40.9078Z" fill="white"/>
<path d="M0.853827 20.7401C0.852626 24.1117 1.73763 27.4034 3.4204 30.3054L0.692627 40.2198L10.8849 37.5594C13.693 39.0827 16.8547 39.8869 20.0724 39.8879H20.0806C30.677 39.8879 39.302 31.3045 39.3065 20.7551C39.3086 15.6426 37.3105 10.8361 33.6804 7.21931C30.0507 3.60296 25.2236 1.6103 20.0798 1.60791C9.4829 1.60791 0.857944 10.1903 0.853352 20.7401L0.853827 20.7401ZM20.0804 39.8878H20.0806H20.0804C20.08 39.8878 20.0802 39.8878 20.0804 39.8878Z" fill="url(#paint0_linear)"/>
<path d="M0.167284 20.7347C0.166082 24.2274 1.08288 27.6374 2.82563 30.6428L0 40.9121L10.5579 38.1564C13.4669 39.7356 16.7418 40.5678 20.0749 40.5692H20.0835C31.0592 40.5692 39.9948 31.6771 39.9994 20.75C40.0012 15.4539 37.9312 10.4745 34.1714 6.7284C30.4109 2.98245 25.4109 0.918297 20.0835 0.916016C9.10534 0.916016 0.17154 9.80638 0.166948 20.734L0.167284 20.7347ZM6.45427 30.125L6.06017 29.5018C4.40289 26.879 3.52824 23.8478 3.52945 20.7355C3.53308 11.6532 10.9586 4.26346 20.0893 4.26346C24.511 4.26517 28.6667 5.98114 31.7925 9.09444C34.918 12.2079 36.6378 16.3469 36.6366 20.7484C36.6325 29.8313 29.2069 37.2216 20.083 37.2216H20.0766C17.1058 37.2199 14.1923 36.4261 11.6514 34.9251L11.0466 34.5683L4.78116 36.2035L6.45427 30.125ZM20.0835 40.5692H20.0837H20.0835C20.083 40.5692 20.0832 40.5692 20.0835 40.5692Z" fill="url(#paint1_linear)"/>
<path fill-rule="evenodd" clip-rule="evenodd" d="M15.1061 12.4481C14.7332 11.6231 14.341 11.6066 13.9863 11.5921C13.6961 11.5798 13.3642 11.5806 13.0326 11.5806C12.7007 11.5806 12.1616 11.7045 11.7057 12.2003C11.2494 12.696 9.96387 13.8944 9.96387 16.3315C9.96387 18.7689 11.7473 21.124 11.9958 21.4548C12.2447 21.785 15.4384 26.9464 20.4961 28.9319C24.6999 30.5821 25.5553 30.2538 26.4677 30.1712C27.3801 30.0887 29.412 28.9732 29.8265 27.8165C30.2413 26.6598 30.2413 25.6684 30.117 25.4614C29.9926 25.255 29.6606 25.131 29.163 24.8834C28.6653 24.6357 26.2187 23.4371 25.7627 23.2718C25.3065 23.1066 24.9747 23.0242 24.6428 23.5202C24.311 24.0155 23.358 25.131 23.0676 25.4614C22.7773 25.7924 22.4869 25.8337 21.9893 25.586C21.4915 25.3374 19.8887 24.8148 17.9875 23.1274C16.508 21.8144 15.5094 20.193 15.219 19.697C14.9287 19.2017 15.1879 18.9333 15.4375 18.6863C15.661 18.4644 15.9353 18.108 16.1842 17.8189C16.4325 17.5296 16.5153 17.3231 16.6812 16.9927C16.8473 16.662 16.7642 16.3727 16.6398 16.125C16.5153 15.8772 15.5482 13.4275 15.1058 12.4479" fill="white"/>
<defs>
<linearGradient id="paint0_linear" x1="19.9998" y1="40.2158" x2="19.9998" y2="1.60385" gradientUnits="userSpaceOnUse">
<stop stop-color="#20B038"/>
<stop offset="1" stop-color="#60D66A"/>
</linearGradient>
<linearGradient id="paint1_linear" x1="20" y1="40.9133" x2="20" y2="0.917212" gradientUnits="userSpaceOnUse">
<stop stop-color="#F9F9F9"/>
<stop offset="1" stop-color="white"/>
</linearGradient>
</defs>
</svg>
