<?xml version="1.0" standalone="no"?>
<!DOCTYPE svg PUBLIC "-//W3C//DTD SVG 1.1//EN" "http://www.w3.org/Graphics/SVG/1.1/DTD/svg11.dtd" >
<svg>
<metadata>
Created by FontForge 20090622 at Wed Apr  5 13:02:38 2017
 By deploy user
Copyright (c) 2013 by Vyacheslav Kirilenko, Gayane Bagdasaryan. All rights reserved.
</metadata>
<defs>
<font id="Institut" horiz-adv-x="646" >
  <font-face 
    font-family="Institut"
    font-weight="400"
    font-stretch="normal"
    units-per-em="1000"
    panose-1="2 0 5 6 4 0 0 2 0 4"
    ascent="852"
    descent="-148"
    x-height="685"
    cap-height="685"
    bbox="10 -238 1150 878"
    underline-thickness="50"
    underline-position="-50"
    unicode-range="U+0020-U+F6C3"
  />
<missing-glyph horiz-adv-x="565" 
d="M494 685l11 -11v-663l-11 -11h-423l-11 11v663l11 11h423zM394 104v477h-223v-477h223z" />
    <glyph glyph-name=".notdef" horiz-adv-x="565" 
d="M494 685l11 -11v-663l-11 -11h-423l-11 11v663l11 11h423zM394 104v477h-223v-477h223z" />
    <glyph glyph-name=".null" horiz-adv-x="0" 
 />
    <glyph glyph-name="nonmarkingreturn" horiz-adv-x="333" 
 />
    <glyph glyph-name="space" unicode=" " horiz-adv-x="331" 
 />
    <glyph glyph-name="exclam" unicode="!" horiz-adv-x="323" 
d="M240 685l11 -11l-24 -449l-11 -11h-109l-11 11l-24 449l11 11h157zM233 157l11 -11v-135l-10 -11h-146l-11 11v135l10 11h146z" />
    <glyph glyph-name="quotedbl" unicode="&#x22;" horiz-adv-x="488" 
d="M397 685l11 -11v-237l-11 -11h-104l-11 11v237l11 11h104zM195 685l11 -11v-237l-11 -11h-104l-11 11v237l11 11h104z" />
    <glyph glyph-name="numbersign" unicode="#" horiz-adv-x="749" 
d="M549 283h99l11 -9l-19 -89l-15 -10h-99l-35 -164l-12 -11h-100l-11 11l35 164h-129l-35 -164l-12 -11h-100l-11 11l35 164h-99l-10 9l18 88l15 11h99l26 119h-100l-10 9l19 88l14 11h100l35 164l11 11h101l10 -11l-35 -164h130l35 164l11 11h101l10 -11l-35 -164h100
l10 -9l-19 -89l-14 -10h-100zM297 283h129l26 119h-130z" />
    <glyph glyph-name="dollar" unicode="$" horiz-adv-x="594" 
d="M376 403q180 -51 180 -205q0 -84 -53 -139t-147 -69v-80l-11 -11h-105l-11 11v80q-93 16 -147 77.5t-54 154.5l11 11h135l11 -11q0 -42 31 -69t84 -27q42 0 70.5 18t28.5 51q0 40 -30 55.5t-121 37.5q-96 23 -149 68.5t-53 137.5q0 81 51 132t132 67v82l11 11h105l11 -11
v-81q81 -16 134 -70.5t53 -144.5l-11 -11h-135l-11 11q-2 82 -95 82q-42 0 -65 -17t-23 -47q0 -13 3 -22t11.5 -16.5t17 -12.5t25.5 -10.5t31 -9t39.5 -10.5z" />
    <glyph glyph-name="percent" unicode="%" horiz-adv-x="846" 
d="M198 685q57 0 103.5 -35t46.5 -100v-92q0 -65 -46 -100.5t-103 -35.5t-103 35.5t-46 100.5v92q0 65 46 100t102 35zM252 469v69q0 25 -15 40.5t-39 15.5q-23 0 -37.5 -15.5t-14.5 -40.5v-69q0 -24 15 -39.5t38 -15.5t38 15.5t15 39.5zM646 363q57 0 103.5 -35t46.5 -100
v-92q0 -65 -46 -100.5t-103 -35.5t-103 35.5t-46 100.5v92q0 65 46 100t102 35zM700 147v70q0 24 -15 39.5t-39 15.5q-23 0 -37.5 -15.5t-14.5 -39.5v-70q0 -24 15 -39.5t38 -15.5t38 15.5t15 39.5zM313 11l-11 -11h-96l-11 11l338 663l11 11h96l11 -11z" />
    <glyph glyph-name="ampersand" unicode="&#x26;" horiz-adv-x="713" 
d="M663 414l11 -11v-119l-11 -11h-89v-52q0 -101 -78.5 -168.5t-185.5 -67.5q-110 0 -187.5 69.5t-77.5 178.5q0 78 41 133.5t104 82.5l-115 92l-8 15v118l11 11h418l11 -11v-120l-11 -11h-239l97 -74l7 -14v-119l-11 -11q-30 9 -44 9q-48 0 -76 -29.5t-28 -71.5t29.5 -72
t78.5 -30q44 0 74 28t33 64v180l11 11h235z" />
    <glyph glyph-name="quotesingle" unicode="'" horiz-adv-x="286" 
d="M195 685l11 -11v-237l-11 -11h-104l-11 11v237l11 11h104z" />
    <glyph glyph-name="parenleft" unicode="(" horiz-adv-x="372" 
d="M329 801q-52 -88 -90 -217t-38 -262t38 -263t90 -218l-11 -11h-132l-11 11q-117 239 -117 481q0 240 117 479l11 11h132z" />
    <glyph glyph-name="parenright" unicode=")" horiz-adv-x="372" 
d="M43 801l11 11h132l11 -11q117 -239 117 -479q0 -242 -117 -481l-11 -11h-132l-11 11q52 88 90 218t38 263t-38 262t-90 217z" />
    <glyph glyph-name="asterisk" unicode="*" horiz-adv-x="502" 
d="M432 519l-7 -12l-92 -23l61 -73l-2 -14l-77 -56l-14 3l-50 80l-50 -80l-14 -3l-77 56l-2 14l60 73l-91 23l-7 12l30 91l12 6l88 -35l-6 94l9 10h96l9 -10l-6 -94l88 35l12 -6z" />
    <glyph glyph-name="plus" unicode="+" horiz-adv-x="600" 
d="M519 415l11 -11v-105l-11 -11h-152v-155l-11 -11h-112l-11 11v155h-152l-11 11v105l11 11h152v156l11 11h112l11 -11v-156h152z" />
    <glyph glyph-name="comma" unicode="," horiz-adv-x="307" 
d="M226 157l11 -11v-149l-70 -122l-11 -11h-73l-11 11l69 125h-60l-11 11v135l10 11h146z" />
    <glyph glyph-name="hyphen" unicode="-" horiz-adv-x="566" 
d="M81 288l-11 11v105l11 11h404l11 -11v-105l-11 -11h-404z" />
    <glyph glyph-name="period" unicode="." horiz-adv-x="307" 
d="M226 157l11 -11v-135l-10 -11h-146l-11 11v135l10 11h146z" />
    <glyph glyph-name="slash" unicode="/" horiz-adv-x="441" 
d="M159 11l-11 -11h-107l-11 11l252 663l11 11h107l11 -11z" />
    <glyph glyph-name="zero" unicode="0" horiz-adv-x="618" 
d="M309 700q43 0 85.5 -13.5t80 -40t60.5 -71.5t23 -102v-261q0 -57 -23 -102t-60.5 -71.5t-80 -40t-85.5 -13.5t-85.5 13.5t-80 40t-60.5 71.5t-23 102v261q0 57 23 102t60.5 71.5t80 40t85.5 13.5zM212 456v-130l190 160q-8 32 -33 52t-60 20q-43 0 -70 -28.5t-27 -73.5z
M309 127q43 0 70 28.5t27 73.5v130l-191 -160q8 -33 33.5 -52.5t60.5 -19.5z" />
    <glyph glyph-name="one" unicode="1" horiz-adv-x="565" 
d="M480 142l11 -11v-120l-11 -11h-369l-11 11v120l11 11h113v294h-113l-11 11v115l11 11h30q37 0 58 22.5t21 59.5v19l11 11h135l11 -11v-532h103z" />
    <glyph glyph-name="two" unicode="2" horiz-adv-x="598" 
d="M286 142h248l11 -11v-120l-11 -11h-459l-11 11v119l8 15q5 4 98.5 86.5l130.5 116.5q41 38 62.5 67t21.5 58q0 37 -23 61t-62 24q-42 0 -65 -28t-23 -74l-10 -11h-131l-11 11v17q0 99 70 163t173 64q99 0 167 -62.5t68 -160.5q0 -95 -82 -180q-20 -21 -62.5 -60
l-75.5 -67z" />
    <glyph glyph-name="three" unicode="3" horiz-adv-x="636" 
d="M428 448q64 -26 106 -80.5t42 -134.5q0 -109 -76 -178.5t-183 -69.5q-105 0 -179 65t-78 167l11 11h131l11 -11q4 -35 32 -62t72 -27q48 0 77 30.5t29 74.5q0 41 -30 71.5t-76 30.5q-39 0 -75 -21l-12 6v116l6 14l122 93h-255l-10 11v121l10 10h434l11 -10v-118l-5 -15z
" />
    <glyph glyph-name="four" unicode="4" horiz-adv-x="658" 
d="M590 264l11 -11v-120l-11 -10h-69v-112l-11 -11h-131l-11 11v112h-297l-11 10v129l6 16l290 400l18 7h136l11 -10v-411h69zM368 264v211l-149 -211h149z" />
    <glyph glyph-name="five" unicode="5" horiz-adv-x="627" 
d="M333 470q97 0 165.5 -67t68.5 -173q0 -107 -74.5 -176t-179.5 -69q-104 0 -176.5 65t-76.5 167l11 11h131l11 -11q3 -35 30 -62t70 -27q48 0 75 30t27 72t-27 71.5t-75 29.5q-55 0 -84 -34h-140l-7 11l43 367l9 10h382l11 -10v-121l-11 -11h-267l-11 -94q39 21 95 21z
" />
    <glyph glyph-name="six" unicode="6" horiz-adv-x="634" 
d="M329 458q11 2 34 2q84 0 147.5 -65.5t63.5 -165.5q0 -109 -74.5 -176.5t-182.5 -67.5t-182.5 67t-74.5 176q0 87 66 188q34 52 187 258l16 11h151l7 -12zM318 128q47 0 76 30t29 71t-29 71t-76 30t-75.5 -30.5t-28.5 -70.5q0 -41 28.5 -71t75.5 -30z" />
    <glyph glyph-name="seven" unicode="7" horiz-adv-x="577" 
d="M507 685l11 -10v-137l-271 -528l-13 -10h-147l-8 11l274 532h-293l-11 11v121l11 10h447z" />
    <glyph glyph-name="eight" unicode="8" horiz-adv-x="636" 
d="M492 370q36 -24 60 -66.5t24 -94.5q0 -98 -73.5 -161t-184.5 -63t-184.5 63t-73.5 161q0 52 24 94.5t60 66.5q-58 51 -58 134q0 85 66 140.5t166 55.5t166 -55.5t66 -140.5t-58 -134zM318 566q-36 0 -60.5 -19t-24.5 -51t24.5 -51t60.5 -19t60.5 19t24.5 51t-24.5 51
t-60.5 19zM318 124q45 0 75.5 25t30.5 66t-30.5 66.5t-75.5 25.5t-75.5 -25.5t-30.5 -66.5t30.5 -66t75.5 -25z" />
    <glyph glyph-name="nine" unicode="9" horiz-adv-x="634" 
d="M305 227q-11 -2 -34 -2q-84 0 -147.5 65.5t-63.5 165.5q0 109 74.5 176.5t182.5 67.5t182.5 -67t74.5 -176q0 -87 -66 -188q-34 -52 -187 -258l-16 -11h-151l-7 12zM316 557q-47 0 -76 -30t-29 -71t29 -71t76 -30t75.5 30.5t28.5 70.5q0 41 -28.5 71t-75.5 30z" />
    <glyph glyph-name="colon" unicode=":" horiz-adv-x="307" 
d="M226 445l11 -11v-135l-10 -11h-146l-11 11v135l10 11h146zM226 157l11 -11v-135l-10 -11h-146l-11 11v135l10 11h146z" />
    <glyph glyph-name="semicolon" unicode=";" horiz-adv-x="307" 
d="M226 445l11 -11v-135l-10 -11h-146l-11 11v135l10 11h146zM226 157l11 -11v-149l-70 -122l-11 -11h-73l-11 11l69 125h-60l-11 11v135l10 11h146z" />
    <glyph glyph-name="less" unicode="&#x3c;" horiz-adv-x="526" 
d="M446 554l-180 -203l180 -203l-11 -11h-155l-18 7l-182 196v21l182 196l18 8h155z" />
    <glyph glyph-name="equal" unicode="=" horiz-adv-x="600" 
d="M81 396l-11 11v105l11 11h438l11 -11v-105l-11 -11h-438zM81 180l-11 11v105l11 11h438l11 -11v-105l-11 -11h-438z" />
    <glyph glyph-name="greater" unicode="&#x3e;" horiz-adv-x="526" 
d="M260 351l-180 203l11 11h155l18 -8l182 -196v-21l-182 -196l-18 -7h-155l-11 11z" />
    <glyph glyph-name="question" unicode="?" horiz-adv-x="552" 
d="M185 251q0 47 12.5 70.5t51.5 51.5l61 43q25 17 35 33.5t10 41.5q0 30 -22 51t-60 21q-44 0 -67.5 -25t-23.5 -65v-15l-10 -11h-131l-11 11v14q0 96 66 162t179 66q106 0 169.5 -58t63.5 -143q0 -101 -78 -157l-42 -30q-32 -22 -41 -36t-9 -39v-18l-10 -11h-132l-11 11
v32zM334 157l11 -11v-135l-10 -11h-146l-11 11v135l10 11h146z" />
    <glyph glyph-name="at" unicode="@" horiz-adv-x="752" 
d="M198 11l-11 -11h-101l-11 11v483q0 95 63 143t165 48h146q102 0 165 -48t63 -143v-483l-11 -11h-101l-11 11v27q-34 -45 -101 -45q-68 0 -120 46.5t-52 133.5v78q0 87 52 133.5t120 46.5q67 0 101 -45v87q0 44 -29 69.5t-77 25.5h-144q-48 0 -77 -25.5t-29 -69.5v-462z
M478 112q34 0 55 22.5t21 57.5v40q0 35 -21 57t-55 22q-33 0 -54 -22t-21 -57v-40q0 -35 21 -57.5t54 -22.5z" />
    <glyph glyph-name="A" unicode="A" horiz-adv-x="642" 
d="M429 674l198 -663l-11 -11h-142l-11 11l-36 129h-216l-36 -129l-11 -11h-138l-11 11l198 663l11 11h194zM321 530l-70 -249h138z" />
    <glyph glyph-name="B" unicode="B" horiz-adv-x="662" 
d="M520 366q92 -53 92 -160q0 -95 -64.5 -150.5t-176.5 -55.5h-285l-11 11v663l11 11h274q97 0 159.5 -50.5t62.5 -131.5q0 -51 -15.5 -81.5t-46.5 -55.5zM232 541v-114h135q28 0 44.5 16.5t16.5 40.5t-16.5 40.5t-44.5 16.5h-135zM372 144q38 0 60 22t22 54t-22 54t-60 22
h-140v-152h140z" />
    <glyph glyph-name="C" unicode="C" horiz-adv-x="636" 
d="M580 273l11 -11v-33q0 -80 -43 -137.5t-102 -82t-122 -24.5q-47 0 -93 14.5t-86 43t-65 77t-25 109.5v227q0 61 25 109.5t65 77t85.5 43t92.5 14.5t92.5 -14.5t85.5 -43t65 -77t25 -109.5v-23l-11 -11h-135l-11 11q0 52 -31 84.5t-80 32.5t-80 -32.5t-31 -84.5v-181
q0 -52 31 -84.5t81 -32.5q49 0 79.5 32.5t30.5 84.5v10l11 11h135z" />
    <glyph glyph-name="D" unicode="D" horiz-adv-x="666" 
d="M342 685q121 0 195 -56.5t74 -168.5v-235q0 -112 -74 -168.5t-195 -56.5h-256l-11 11v663l11 11h256zM454 242v201q0 47 -31 73.5t-81 26.5h-110v-401h110q50 0 81 26.5t31 73.5z" />
    <glyph glyph-name="E" unicode="E" horiz-adv-x="660" 
d="M589 150l11 -11v-128l-11 -11h-503l-11 11v663l11 11h501l11 -11v-128l-11 -11h-355v-103h251l11 -11v-122l-11 -11h-251v-138h357z" />
    <glyph glyph-name="F" unicode="F" horiz-adv-x="625" 
d="M590 685l10 -11v-128l-10 -11h-358v-103h249l11 -11v-122l-11 -11h-249v-277l-11 -11h-135l-11 11v663l11 11h504z" />
    <glyph glyph-name="G" unicode="G" 
d="M337 371h243l11 -11v-129q0 -62 -25 -110.5t-65 -77.5t-85.5 -43.5t-91.5 -14.5q-47 0 -93 14.5t-86 43t-65 77t-25 109.5v227q0 61 25 109.5t65 77t85.5 43t92.5 14.5t92.5 -14.5t85.5 -43t65 -77t25 -109.5v-20l-11 -11h-135l-11 11q0 51 -31 82.5t-80 31.5t-80 -32.5
t-31 -84.5v-181q0 -52 31 -84.5t81 -32.5t79 29t31 70h-97l-11 11v115z" />
    <glyph glyph-name="H" unicode="H" horiz-adv-x="689" 
d="M604 685l10 -11v-663l-10 -11h-136l-11 11v266h-225v-266l-11 -11h-135l-11 11v663l11 11h135l11 -11v-247h225v247l11 11h136z" />
    <glyph glyph-name="I" unicode="I" horiz-adv-x="520" 
d="M338 535v-385h111l11 -11v-128l-11 -11h-378l-11 11v128l11 11h110v385h-110l-11 11v128l11 11h378l11 -11v-128l-11 -11h-111z" />
    <glyph glyph-name="J" unicode="J" horiz-adv-x="596" 
d="M515 685l11 -11v-458q0 -58 -23.5 -104t-61.5 -72.5t-81.5 -40.5t-86.5 -14q-44 0 -87.5 14t-82 41t-62 72.5t-23.5 103.5v36l11 11h135l11 -11v-15q0 -45 27 -73.5t70 -28.5t70 28.5t27 73.5v298h-152l-11 11v128l11 11h298z" />
    <glyph glyph-name="K" unicode="K" horiz-adv-x="661" 
d="M425 425l211 -414l-8 -11h-152l-14 9l-148 292l-82 -108v-182l-11 -11h-135l-11 11v663l11 11h135l11 -11v-256l210 257l16 10h163l7 -11z" />
    <glyph glyph-name="L" unicode="L" horiz-adv-x="604" 
d="M558 150l11 -11v-128l-11 -11h-472l-11 11v663l11 11h135l11 -11v-524h326z" />
    <glyph glyph-name="M" unicode="M" horiz-adv-x="750" 
d="M664 685l11 -11v-663l-11 -11h-134l-10 11v441l-81 -153l-11 -11h-109l-11 11l-78 151v-439l-11 -11h-133l-11 11v663l11 11h161l14 -9l116 -230l114 230l14 9h159z" />
    <glyph glyph-name="N" unicode="N" horiz-adv-x="682" 
d="M596 685l11 -11v-663l-11 -11h-152l-15 9l-203 408v-406l-11 -11h-129l-11 11v663l11 11h152l15 -8l203 -409v406l11 11h129z" />
    <glyph glyph-name="O" unicode="O" 
d="M322 700q47 0 93 -14.5t86 -43t65 -77t25 -109.5v-228q0 -60 -25 -108.5t-65 -77t-86 -43t-92 -14.5q-47 0 -92.5 14.5t-85.5 43t-65 77t-25 108.5v228q0 80 43 137.5t102 82t122 24.5zM434 252v181q0 51 -31.5 84t-80.5 33t-79.5 -33t-30.5 -84v-181q0 -52 31 -84.5
t80 -32.5t80 32.5t31 84.5z" />
    <glyph glyph-name="P" unicode="P" horiz-adv-x="628" 
d="M347 685q123 0 190 -64t67 -162t-67 -162.5t-190 -64.5h-115v-221l-11 -11h-135l-11 11v663l11 11h261zM358 374q41 0 65 24.5t24 59.5t-24 59t-65 24h-126v-167h126z" />
    <glyph glyph-name="Q" unicode="Q" 
d="M322 700q47 0 93 -14.5t86 -43t65 -77t25 -109.5v-228q0 -94 -55.5 -153.5t-137.5 -79.5v-106l-11 -11h-128l-11 11v106q-82 20 -137.5 79t-55.5 154v228q0 80 43 137.5t102 82t122 24.5zM434 252v181q0 51 -31.5 84t-80.5 33t-79.5 -33t-30.5 -84v-181q0 -52 31 -84.5
t80 -32.5t80 32.5t31 84.5z" />
    <glyph glyph-name="R" unicode="R" horiz-adv-x="671" 
d="M353 685q124 0 190.5 -64.5t66.5 -162.5q0 -123 -95 -184l103 -263l-8 -11h-145l-15 10l-83 222h-135v-221l-11 -11h-135l-11 11v663l11 11h267zM453 458q0 35 -24 59t-66 24h-131v-167h131q42 0 66 24.5t24 59.5z" />
    <glyph glyph-name="S" unicode="S" horiz-adv-x="594" 
d="M376 403q180 -51 180 -205q0 -98 -71 -155.5t-193 -57.5q-119 0 -191.5 64.5t-72.5 172.5l11 11h135l11 -11q0 -42 31 -69t84 -27q42 0 70.5 18t28.5 51q0 40 -30 55.5t-121 37.5q-96 23 -149 68.5t-53 137.5q0 98 72.5 152t176.5 54q101 0 174.5 -57t73.5 -164l-11 -11
h-135l-11 11q-2 82 -95 82q-42 0 -65 -17t-23 -47q0 -13 3 -22t11.5 -16.5t17 -12.5t25.5 -10.5t31 -9t39.5 -10.5z" />
    <glyph glyph-name="T" unicode="T" horiz-adv-x="586" 
d="M550 685l11 -11v-128l-11 -11h-179v-524l-11 -11h-135l-11 11v524h-178l-11 11v128l11 11h514z" />
    <glyph glyph-name="U" unicode="U" horiz-adv-x="678" 
d="M597 685l11 -11v-445q0 -61 -25 -109.5t-65 -77t-86 -43t-93 -14.5t-93 14.5t-86 43t-65 77t-25 109.5v445l11 11h135l11 -11v-422q0 -52 31 -84.5t81 -32.5t81 32.5t31 84.5v422l11 11h135z" />
    <glyph glyph-name="V" unicode="V" horiz-adv-x="635" 
d="M609 685l11 -11l-193 -663l-11 -11h-197l-11 11l-193 663l11 11h141l11 -11l141 -513l144 513l11 11h135z" />
    <glyph glyph-name="W" unicode="W" horiz-adv-x="775" 
d="M734 685l11 -11l-81 -663l-11 -11h-162l-11 11l-93 229l-86 -229l-11 -11h-167l-11 11l-82 663l11 11h135l11 -11l53 -466l83 222l11 11h106l11 -11l91 -223l51 467l11 11h130z" />
    <glyph glyph-name="X" unicode="X" horiz-adv-x="625" 
d="M410 353l190 -342l-7 -11h-154l-15 9l-112 206l-117 -206l-15 -9h-149l-6 11l193 341l-188 322l6 11h153l15 -9l113 -202l111 202l15 9h147l7 -11z" />
    <glyph glyph-name="Y" unicode="Y" horiz-adv-x="640" 
d="M624 685l6 -10l-232 -436v-228l-10 -11h-136l-11 11v228l-231 436l6 10h153l16 -8l137 -277l139 277l17 8h146z" />
    <glyph glyph-name="Z" unicode="Z" horiz-adv-x="616" 
d="M236 150h329l11 -10v-129l-11 -11h-514l-11 11v129l6 15l324 380h-312l-11 11v129l11 10h502l11 -10v-129l-6 -14z" />
    <glyph glyph-name="bracketleft" unicode="[" horiz-adv-x="403" 
d="M77 812h283l11 -11v-105l-11 -11h-160v-731h160l11 -11v-105l-11 -11h-283l-11 11v963z" />
    <glyph glyph-name="backslash" unicode="\" horiz-adv-x="441" 
d="M293 0l-11 11l-252 663l11 11h107l11 -11l252 -663l-11 -11h-107z" />
    <glyph glyph-name="bracketright" unicode="]" horiz-adv-x="403" 
d="M326 812l11 -11v-963l-11 -11h-283l-11 11v105l11 11h160v731h-160l-11 11v105l11 11h283z" />
    <glyph glyph-name="underscore" unicode="_" 
d="M81 0l-11 11v105l11 11h484l11 -11v-105l-11 -11h-484z" />
    <glyph glyph-name="grave" unicode="`" horiz-adv-x="331" 
d="M28 861l10 11h145l15 -11l78 -117l-10 -11h-114l-17 7z" />
    <glyph glyph-name="a" unicode="a" horiz-adv-x="642" 
d="M429 674l198 -663l-11 -11h-142l-11 11l-36 129h-216l-36 -129l-11 -11h-138l-11 11l198 663l11 11h194zM321 530l-70 -249h138z" />
    <glyph glyph-name="b" unicode="b" horiz-adv-x="662" 
d="M520 366q92 -53 92 -160q0 -95 -64.5 -150.5t-176.5 -55.5h-285l-11 11v663l11 11h274q97 0 159.5 -50.5t62.5 -131.5q0 -51 -15.5 -81.5t-46.5 -55.5zM232 541v-114h135q28 0 44.5 16.5t16.5 40.5t-16.5 40.5t-44.5 16.5h-135zM372 144q38 0 60 22t22 54t-22 54t-60 22
h-140v-152h140z" />
    <glyph glyph-name="c" unicode="c" horiz-adv-x="636" 
d="M580 273l11 -11v-33q0 -80 -43 -137.5t-102 -82t-122 -24.5q-47 0 -93 14.5t-86 43t-65 77t-25 109.5v227q0 61 25 109.5t65 77t85.5 43t92.5 14.5t92.5 -14.5t85.5 -43t65 -77t25 -109.5v-23l-11 -11h-135l-11 11q0 52 -31 84.5t-80 32.5t-80 -32.5t-31 -84.5v-181
q0 -52 31 -84.5t81 -32.5q49 0 79.5 32.5t30.5 84.5v10l11 11h135z" />
    <glyph glyph-name="d" unicode="d" horiz-adv-x="666" 
d="M342 685q121 0 195 -56.5t74 -168.5v-235q0 -112 -74 -168.5t-195 -56.5h-256l-11 11v663l11 11h256zM454 242v201q0 47 -31 73.5t-81 26.5h-110v-401h110q50 0 81 26.5t31 73.5z" />
    <glyph glyph-name="e" unicode="e" horiz-adv-x="660" 
d="M589 150l11 -11v-128l-11 -11h-503l-11 11v663l11 11h501l11 -11v-128l-11 -11h-355v-103h251l11 -11v-122l-11 -11h-251v-138h357z" />
    <glyph glyph-name="f" unicode="f" horiz-adv-x="625" 
d="M590 685l10 -11v-128l-10 -11h-358v-103h249l11 -11v-122l-11 -11h-249v-277l-11 -11h-135l-11 11v663l11 11h504z" />
    <glyph glyph-name="g" unicode="g" 
d="M337 371h243l11 -11v-129q0 -62 -25 -110.5t-65 -77.5t-85.5 -43.5t-91.5 -14.5q-47 0 -93 14.5t-86 43t-65 77t-25 109.5v227q0 61 25 109.5t65 77t85.5 43t92.5 14.5t92.5 -14.5t85.5 -43t65 -77t25 -109.5v-20l-11 -11h-135l-11 11q0 51 -31 82.5t-80 31.5t-80 -32.5
t-31 -84.5v-181q0 -52 31 -84.5t81 -32.5t79 29t31 70h-97l-11 11v115z" />
    <glyph glyph-name="h" unicode="h" horiz-adv-x="689" 
d="M604 685l10 -11v-663l-10 -11h-136l-11 11v266h-225v-266l-11 -11h-135l-11 11v663l11 11h135l11 -11v-247h225v247l11 11h136z" />
    <glyph glyph-name="i" unicode="i" horiz-adv-x="520" 
d="M338 535v-385h111l11 -11v-128l-11 -11h-378l-11 11v128l11 11h110v385h-110l-11 11v128l11 11h378l11 -11v-128l-11 -11h-111z" />
    <glyph glyph-name="j" unicode="j" horiz-adv-x="596" 
d="M515 685l11 -11v-458q0 -58 -23.5 -104t-61.5 -72.5t-81.5 -40.5t-86.5 -14q-44 0 -87.5 14t-82 41t-62 72.5t-23.5 103.5v36l11 11h135l11 -11v-15q0 -45 27 -73.5t70 -28.5t70 28.5t27 73.5v298h-152l-11 11v128l11 11h298z" />
    <glyph glyph-name="k" unicode="k" horiz-adv-x="661" 
d="M425 425l211 -414l-8 -11h-152l-14 9l-148 292l-82 -108v-182l-11 -11h-135l-11 11v663l11 11h135l11 -11v-256l210 257l16 10h163l7 -11z" />
    <glyph glyph-name="l" unicode="l" horiz-adv-x="604" 
d="M558 150l11 -11v-128l-11 -11h-472l-11 11v663l11 11h135l11 -11v-524h326z" />
    <glyph glyph-name="m" unicode="m" horiz-adv-x="750" 
d="M664 685l11 -11v-663l-11 -11h-134l-10 11v441l-81 -153l-11 -11h-109l-11 11l-78 151v-439l-11 -11h-133l-11 11v663l11 11h161l14 -9l116 -230l114 230l14 9h159z" />
    <glyph glyph-name="n" unicode="n" horiz-adv-x="682" 
d="M596 685l11 -11v-663l-11 -11h-152l-15 9l-203 408v-406l-11 -11h-129l-11 11v663l11 11h152l15 -8l203 -409v406l11 11h129z" />
    <glyph glyph-name="o" unicode="o" 
d="M322 700q47 0 93 -14.5t86 -43t65 -77t25 -109.5v-228q0 -60 -25 -108.5t-65 -77t-86 -43t-92 -14.5q-47 0 -92.5 14.5t-85.5 43t-65 77t-25 108.5v228q0 80 43 137.5t102 82t122 24.5zM434 252v181q0 51 -31.5 84t-80.5 33t-79.5 -33t-30.5 -84v-181q0 -52 31 -84.5
t80 -32.5t80 32.5t31 84.5z" />
    <glyph glyph-name="p" unicode="p" horiz-adv-x="628" 
d="M347 685q123 0 190 -64t67 -162t-67 -162.5t-190 -64.5h-115v-221l-11 -11h-135l-11 11v663l11 11h261zM358 374q41 0 65 24.5t24 59.5t-24 59t-65 24h-126v-167h126z" />
    <glyph glyph-name="q" unicode="q" 
d="M322 700q47 0 93 -14.5t86 -43t65 -77t25 -109.5v-228q0 -94 -55.5 -153.5t-137.5 -79.5v-106l-11 -11h-128l-11 11v106q-82 20 -137.5 79t-55.5 154v228q0 80 43 137.5t102 82t122 24.5zM434 252v181q0 51 -31.5 84t-80.5 33t-79.5 -33t-30.5 -84v-181q0 -52 31 -84.5
t80 -32.5t80 32.5t31 84.5z" />
    <glyph glyph-name="r" unicode="r" horiz-adv-x="671" 
d="M353 685q124 0 190.5 -64.5t66.5 -162.5q0 -123 -95 -184l103 -263l-8 -11h-145l-15 10l-83 222h-135v-221l-11 -11h-135l-11 11v663l11 11h267zM453 458q0 35 -24 59t-66 24h-131v-167h131q42 0 66 24.5t24 59.5z" />
    <glyph glyph-name="s" unicode="s" horiz-adv-x="594" 
d="M376 403q180 -51 180 -205q0 -98 -71 -155.5t-193 -57.5q-119 0 -191.5 64.5t-72.5 172.5l11 11h135l11 -11q0 -42 31 -69t84 -27q42 0 70.5 18t28.5 51q0 40 -30 55.5t-121 37.5q-96 23 -149 68.5t-53 137.5q0 98 72.5 152t176.5 54q101 0 174.5 -57t73.5 -164l-11 -11
h-135l-11 11q-2 82 -95 82q-42 0 -65 -17t-23 -47q0 -13 3 -22t11.5 -16.5t17 -12.5t25.5 -10.5t31 -9t39.5 -10.5z" />
    <glyph glyph-name="t" unicode="t" horiz-adv-x="586" 
d="M550 685l11 -11v-128l-11 -11h-179v-524l-11 -11h-135l-11 11v524h-178l-11 11v128l11 11h514z" />
    <glyph glyph-name="u" unicode="u" horiz-adv-x="678" 
d="M597 685l11 -11v-445q0 -61 -25 -109.5t-65 -77t-86 -43t-93 -14.5t-93 14.5t-86 43t-65 77t-25 109.5v445l11 11h135l11 -11v-422q0 -52 31 -84.5t81 -32.5t81 32.5t31 84.5v422l11 11h135z" />
    <glyph glyph-name="v" unicode="v" horiz-adv-x="635" 
d="M609 685l11 -11l-193 -663l-11 -11h-197l-11 11l-193 663l11 11h141l11 -11l141 -513l144 513l11 11h135z" />
    <glyph glyph-name="w" unicode="w" horiz-adv-x="775" 
d="M734 685l11 -11l-81 -663l-11 -11h-162l-11 11l-93 229l-86 -229l-11 -11h-167l-11 11l-82 663l11 11h135l11 -11l53 -466l83 222l11 11h106l11 -11l91 -223l51 467l11 11h130z" />
    <glyph glyph-name="x" unicode="x" horiz-adv-x="625" 
d="M410 353l190 -342l-7 -11h-154l-15 9l-112 206l-117 -206l-15 -9h-149l-6 11l193 341l-188 322l6 11h153l15 -9l113 -202l111 202l15 9h147l7 -11z" />
    <glyph glyph-name="y" unicode="y" horiz-adv-x="640" 
d="M624 685l6 -10l-232 -436v-228l-10 -11h-136l-11 11v228l-231 436l6 10h153l16 -8l137 -277l139 277l17 8h146z" />
    <glyph glyph-name="z" unicode="z" horiz-adv-x="616" 
d="M236 150h329l11 -10v-129l-11 -11h-514l-11 11v129l6 15l324 380h-312l-11 11v129l11 10h502l11 -10v-129l-6 -14z" />
    <glyph glyph-name="braceleft" unicode="{" horiz-adv-x="367" 
d="M36 380l11 11h29q14 0 23 2.5t16.5 13t7.5 30.5v227q0 62 45.5 105t109.5 43h42l11 -11v-102l-11 -11h-21q-17 0 -29.5 -12.5t-12.5 -29.5v-189q0 -64 -13 -93.5t-58 -42.5q45 -12 58 -41.5t13 -93.5v-187q0 -17 12.5 -29.5t29.5 -12.5h21l11 -11v-105l-11 -11h-42
q-65 0 -110 43t-45 105v228q0 46 -47 46h-29l-11 11v117z" />
    <glyph glyph-name="bar" unicode="|" horiz-adv-x="274" 
d="M86 -170l-11 11v960l11 11h102l11 -11v-960l-11 -11h-102z" />
    <glyph glyph-name="braceright" unicode="}" horiz-adv-x="367" 
d="M320 391l11 -11v-117l-11 -11h-29q-47 0 -47 -46v-228q0 -62 -45 -105t-110 -43h-42l-11 11v105l11 11h21q17 0 29.5 12.5t12.5 29.5v187q0 64 13 93.5t58 41.5q-45 13 -58 42.5t-13 93.5v189q0 17 -12.5 29.5t-29.5 12.5h-21l-11 11v102l11 11h42q64 0 109.5 -43
t45.5 -105v-227q0 -28 12.5 -37t34.5 -9h29z" />
    <glyph glyph-name="nbspace" unicode="&#xa0;" horiz-adv-x="331" 
 />
    <glyph glyph-name="exclamdown" unicode="&#xa1;" horiz-adv-x="323" 
d="M83 0l-11 11l24 449l11 11h109l11 -11l24 -449l-11 -11h-157zM90 528l-11 11v135l10 11h146l11 -11v-135l-10 -11h-146z" />
    <glyph glyph-name="cent" unicode="&#xa2;" horiz-adv-x="654" 
d="M575 300l11 -11v-33q0 -98 -59.5 -159t-145.5 -79v-85l-11 -11h-105l-11 11v86q-86 18 -145 78.5t-59 158.5v171q0 98 59 158.5t145 78.5v86l11 11h105l11 -11v-86q86 -18 145.5 -78t59.5 -159v-23l-11 -11h-135l-11 11q0 52 -31 84.5t-80 32.5t-80 -32.5t-31 -84.5v-125
q0 -52 31 -84.5t81 -32.5q49 0 79.5 32.5t30.5 84.5v10l11 11h135z" />
    <glyph glyph-name="sterling" unicode="&#xa3;" horiz-adv-x="659" 
d="M61 0l-11 11v128l11 11h65v98h-65l-11 11v113l11 11h65v105q0 89 64 150.5t167 61.5t167 -61.5t64 -150.5v-23l-11 -11h-135l-11 11v5q0 37 -20.5 59t-53.5 22q-34 0 -54 -22t-20 -59v-87h139l11 -11v-113l-11 -11h-139v-98h325l11 -11v-128l-11 -11h-547z" />
    <glyph glyph-name="yen" unicode="&#xa5;" horiz-adv-x="640" 
d="M133 230l-8 8v63l8 9h79l-202 365l6 10h153l16 -8l137 -260l139 260l17 8h146l6 -10l-204 -365h81l9 -9v-63l-9 -8h-109v-38h109l9 -9v-62l-9 -9h-109v-101l-10 -11h-136l-11 11v101h-108l-8 9v62l8 9h108v38h-108z" />
    <glyph glyph-name="brokenbar" unicode="&#xa6;" horiz-adv-x="274" 
d="M86 -132l-11 11v354l11 11h102l11 -11v-354l-11 -11h-102zM86 398l-11 11v354l11 11h102l11 -11v-354l-11 -11h-102z" />
    <glyph glyph-name="dieresis" unicode="&#xa8;" horiz-adv-x="462" 
d="M185 872l11 -11v-117l-11 -11h-135l-11 11v117l11 11h135zM412 872l11 -11v-117l-11 -11h-135l-11 11v117l11 11h135z" />
    <glyph glyph-name="copyright" unicode="&#xa9;" horiz-adv-x="835" 
d="M419 700q147 0 251.5 -105t104.5 -252q0 -148 -104 -253t-252 -105t-253.5 105t-105.5 253q0 147 105.5 252t253.5 105zM419 24q132 0 225 93t93 226t-93 225.5t-225 92.5q-134 0 -227 -92.5t-93 -225.5t93 -226t227 -93zM569 301l6 -7v-18q0 -69 -48.5 -106.5
t-108.5 -37.5t-109 37.5t-49 106.5v133q0 69 49 106.5t109 37.5t108.5 -37.5t48.5 -106.5v-13l-6 -7h-80l-6 7q0 30 -18.5 49.5t-46.5 19.5q-29 0 -47.5 -19.5t-18.5 -49.5v-107q0 -30 18.5 -49.5t47.5 -19.5t47 19.5t18 49.5v5l6 7h80z" />
    <glyph glyph-name="guillemotleft" unicode="&#xab;" horiz-adv-x="580" 
d="M295 527l-78 -176l78 -176l-10 -9h-131l-16 6l-82 170v18l82 170l16 7h131zM524 527l-78 -176l78 -176l-10 -9h-131l-16 6l-82 170v18l82 170l16 7h131z" />
    <glyph glyph-name="logicalnot" unicode="&#xac;" horiz-adv-x="567" 
d="M486 373l11 -11v-267l-11 -11h-122l-11 11v139h-297l-11 11v117l11 11h430z" />
    <glyph glyph-name="uni00AD" unicode="&#xad;" horiz-adv-x="566" 
d="M81 288l-11 11v105l11 11h404l11 -11v-105l-11 -11h-404z" />
    <glyph glyph-name="registered" unicode="&#xae;" horiz-adv-x="835" 
d="M419 700q147 0 251.5 -105t104.5 -252q0 -148 -104 -253t-252 -105t-253.5 105t-105.5 253q0 147 105.5 252t253.5 105zM419 24q132 0 225.5 93t93.5 226q0 132 -93.5 225t-225.5 93q-134 0 -227 -92.5t-93 -225.5t93 -226t227 -93zM434 544q73 0 112 -38t39 -96
q0 -72 -56 -108l61 -155l-5 -6h-85l-9 6l-49 130h-79v-130l-7 -6h-79l-7 6v390l7 7h157zM493 410q0 20 -14.5 34.5t-38.5 14.5h-77v-98h77q24 0 38.5 14.5t14.5 34.5z" />
    <glyph glyph-name="macron" unicode="&#xaf;" horiz-adv-x="431" 
d="M380 848l11 -11v-81l-11 -11h-329l-11 11v81l11 11h329z" />
    <glyph glyph-name="degree" unicode="&#xb0;" horiz-adv-x="433" 
d="M216 685q70 0 118.5 -48.5t48.5 -117.5t-48.5 -118t-118.5 -49q-69 0 -117.5 49t-48.5 118q0 68 48.5 117t117.5 49zM216 459q25 0 42.5 17.5t17.5 42.5q0 24 -17.5 41.5t-42.5 17.5q-24 0 -41.5 -17.5t-17.5 -41.5q0 -25 17.5 -42.5t41.5 -17.5z" />
    <glyph glyph-name="twosuperior" unicode="&#xb2;" horiz-adv-x="409" 
d="M204 362h137l8 -9v-78l-8 -8h-280l-9 8v76l5 10q65 52 139 122q49 47 49 71q0 20 -12.5 32.5t-34.5 12.5t-34.5 -15.5t-12.5 -42.5l-8 -9h-84l-9 9v13q0 61 43.5 100.5t106.5 39.5q62 0 103.5 -38.5t41.5 -99.5q0 -60 -49 -110q-11 -12 -34 -33l-40 -36z" />
    <glyph glyph-name="threesuperior" unicode="&#xb3;" horiz-adv-x="417" 
d="M338 593l-63 -52q82 -40 82 -130q0 -68 -46.5 -110.5t-112.5 -42.5q-65 0 -110.5 41t-47.5 105l9 9h84l8 -9q2 -21 17.5 -36t42.5 -15t41.5 16.5t14.5 40.5q0 23 -16 39.5t-42 16.5q-24 0 -46 -12l-11 5v72l4 12l64 47h-142l-8 9v78l8 8h265l8 -8v-75z" />
    <glyph glyph-name="acute" unicode="&#xb4;" horiz-adv-x="331" 
d="M293 872l10 -11l-107 -121l-17 -7h-114l-10 11l78 117l15 11h145z" />
    <glyph glyph-name="paragraph" unicode="&#xb6;" horiz-adv-x="664" 
d="M578 685l11 -10v-873l-11 -11h-96l-11 11v764h-73v-764l-10 -11h-97l-11 11v455h-39q-95 0 -158 59t-63 155t63 155t158 59h337z" />
    <glyph glyph-name="periodcentered" unicode="&#xb7;" horiz-adv-x="307" 
d="M226 430l11 -11v-135l-10 -11h-146l-11 11v135l10 11h146z" />
    <glyph glyph-name="cedilla" unicode="&#xb8;" horiz-adv-x="394" 
d="M305 22l10 -11l-96 -150l-17 -9h-105l-10 11l74 148l15 11h129z" />
    <glyph glyph-name="onesuperior" unicode="&#xb9;" horiz-adv-x="352" 
d="M290 362l9 -9v-78l-9 -8h-226l-9 8v78l9 9h65v165h-65l-9 8v75l9 9h21q20 0 31 12t11 31v15l8 8h87l9 -8v-315h59z" />
    <glyph glyph-name="guillemotright" unicode="&#xbb;" horiz-adv-x="580" 
d="M363 351l-78 176l10 10h131l16 -7l82 -170v-18l-82 -170l-16 -6h-131l-10 9zM134 351l-78 176l10 10h131l16 -7l82 -170v-18l-82 -170l-16 -6h-131l-10 9z" />
    <glyph glyph-name="onequarter" unicode="&#xbc;" horiz-adv-x="913" 
d="M290 362l9 -9v-78l-9 -8h-226l-9 8v78l9 9h65v165h-65l-9 8v75l9 9h21q20 0 31 12t11 31v15l8 8h87l9 -8v-315h59zM351 11l-11 -11h-92l-11 11l329 663l11 11h92l11 -11zM859 168l9 -9v-78l-9 -8h-38v-65l-9 -8h-84l-9 8v65h-175l-8 8v82l3 9l175 242l12 4h86l9 -8v-242
h38zM719 168v107l-32.5 -46.5t-43.5 -60.5h76z" />
    <glyph glyph-name="onehalf" unicode="&#xbd;" horiz-adv-x="945" 
d="M745 95h137l8 -9v-78l-8 -8h-280l-9 8v76l5 10q65 52 139 122q49 47 49 71q0 20 -12.5 32.5t-34.5 12.5t-34.5 -15.5t-12.5 -42.5l-8 -9h-84l-9 9v13q0 61 43.5 100.5t106.5 39.5q62 0 103.5 -38.5t41.5 -99.5q0 -60 -49 -110q-11 -12 -34 -33t-41 -36zM290 362l9 -9v-78
l-9 -8h-226l-9 8v78l9 9h65v165h-65l-9 8v75l9 9h21q20 0 31 12t11 31v15l8 8h87l9 -8v-315h59zM351 11l-11 -11h-92l-11 11l329 663l11 11h92l11 -11z" />
    <glyph glyph-name="threequarters" unicode="&#xbe;" horiz-adv-x="948" 
d="M386 11l-11 -11h-92l-11 11l329 663l11 11h92l11 -11zM894 168l9 -9v-78l-9 -8h-38v-65l-9 -8h-84l-9 8v65h-175l-8 8v82l3 9l175 242l12 4h86l9 -8v-242h38zM754 168v107l-32.5 -46.5t-43.5 -60.5h76zM343 593l-63 -52q82 -40 82 -130q0 -68 -46.5 -110.5t-112.5 -42.5
q-65 0 -110.5 41t-47.5 105l9 9h84l8 -9q2 -21 17.5 -36t42.5 -15t41.5 16.5t14.5 40.5q0 23 -16 39.5t-42 16.5q-24 0 -46 -12l-11 5v72l4 12l64 47h-142l-8 9v78l8 8h265l8 -8v-75z" />
    <glyph glyph-name="questiondown" unicode="&#xbf;" horiz-adv-x="552" 
d="M367 434q0 -47 -12.5 -70.5t-51.5 -51.5l-61 -43q-25 -17 -35 -33.5t-10 -41.5q0 -30 22 -51t60 -21q44 0 67.5 25t23.5 65v15l10 11h131l11 -11v-14q0 -96 -66 -162t-179 -66q-106 0 -169.5 58t-63.5 143q0 101 78 157l42 30q32 22 41 36t9 39v18l10 11h132l11 -11v-32z
M218 528l-11 11v135l10 11h146l11 -11v-135l-10 -11h-146z" />
    <glyph glyph-name="Agrave" unicode="&#xc0;" horiz-adv-x="642" 
d="M429 674l198 -663l-11 -11h-142l-11 11l-36 129h-216l-36 -129l-11 -11h-138l-11 11l198 663l11 11h194zM321 530l-70 -249h138zM145 861l10 11h145l15 -11l78 -117l-10 -11h-114l-17 7z" />
    <glyph glyph-name="Aacute" unicode="&#xc1;" horiz-adv-x="642" 
d="M429 674l198 -663l-11 -11h-142l-11 11l-36 129h-216l-36 -129l-11 -11h-138l-11 11l198 663l11 11h194zM321 530l-70 -249h138zM488 872l10 -11l-107 -121l-17 -7h-114l-10 11l78 117l15 11h145z" />
    <glyph glyph-name="Acircumflex" unicode="&#xc2;" horiz-adv-x="642" 
d="M429 674l198 -663l-11 -11h-142l-11 11l-36 129h-216l-36 -129l-11 -11h-138l-11 11l198 663l11 11h194zM321 530l-70 -249h138zM415 861l86 -117l-11 -11h-113l-16 11l-40 54l-39 -54l-16 -11h-113l-11 11l86 117l17 11h153z" />
    <glyph glyph-name="Atilde" unicode="&#xc3;" horiz-adv-x="642" 
d="M429 674l198 -663l-11 -11h-142l-11 11l-36 129h-216l-36 -129l-11 -11h-138l-11 11l198 663l11 11h194zM321 530l-70 -249h138zM486 878l11 -11v-81l-11 -11h-73q-9 0 -23 -4l-103 -33q-13 -5 -25 -5h-105l-11 11v81l11 11h73q9 0 23 4l103 33q13 5 25 5h105z" />
    <glyph glyph-name="Adieresis" unicode="&#xc4;" horiz-adv-x="642" 
d="M429 674l198 -663l-11 -11h-142l-11 11l-36 129h-216l-36 -129l-11 -11h-138l-11 11l198 663l11 11h194zM321 530l-70 -249h138zM276 872l11 -11v-117l-11 -11h-135l-11 11v117l11 11h135zM503 872l11 -11v-117l-11 -11h-135l-11 11v117l11 11h135z" />
    <glyph glyph-name="Aring" unicode="&#xc5;" horiz-adv-x="642" 
d="M321 877q54 0 92 -38t38 -92q0 -42 -22 -73l198 -663l-11 -11h-142l-11 11l-36 129h-216l-36 -129l-11 -11h-138l-11 11l198 663q-22 31 -22 73q0 54 38.5 92t91.5 38zM321 530l-70 -249h138zM321 687q25 0 42.5 17.5t17.5 42.5t-17.5 42.5t-42.5 17.5t-42.5 -17.5
t-17.5 -42.5t17.5 -42.5t42.5 -17.5z" />
    <glyph glyph-name="AE" unicode="&#xc6;" horiz-adv-x="958" 
d="M887 149l11 -11v-127l-11 -11h-449l-11 11v129h-189l-60 -129l-11 -11h-146l-11 11l315 663l11 11h549l11 -11v-128l-11 -11h-301v-103h197l11 -11v-122l-11 -11h-197v-139h303zM427 545l-123 -264h123v264z" />
    <glyph glyph-name="Ccedilla" unicode="&#xc7;" horiz-adv-x="636" 
d="M580 273l11 -11v-33q0 -97 -58 -157.5t-142 -78.5l-84 -132l-17 -9h-105l-10 11l66 133q-80 22 -133 81t-53 152v227q0 61 25 109.5t65 77t85.5 43t92.5 14.5t92.5 -14.5t85.5 -43t65 -77t25 -109.5v-23l-11 -11h-135l-11 11q0 52 -31 84.5t-80 32.5t-80 -32.5t-31 -84.5
v-181q0 -52 31 -84.5t81 -32.5q49 0 79.5 32.5t30.5 84.5v10l11 11h135z" />
    <glyph glyph-name="Egrave" unicode="&#xc8;" horiz-adv-x="660" 
d="M589 150l11 -11v-128l-11 -11h-503l-11 11v663l11 11h501l11 -11v-128l-11 -11h-355v-103h251l11 -11v-122l-11 -11h-251v-138h357zM180 861l10 11h145l15 -11l78 -117l-10 -11h-114l-17 7z" />
    <glyph glyph-name="Eacute" unicode="&#xc9;" horiz-adv-x="660" 
d="M589 150l11 -11v-128l-11 -11h-503l-11 11v663l11 11h501l11 -11v-128l-11 -11h-355v-103h251l11 -11v-122l-11 -11h-251v-138h357zM480 872l10 -11l-107 -121l-17 -7h-114l-10 11l78 117l15 11h145z" />
    <glyph glyph-name="Ecircumflex" unicode="&#xca;" horiz-adv-x="660" 
d="M589 150l11 -11v-128l-11 -11h-503l-11 11v663l11 11h501l11 -11v-128l-11 -11h-355v-103h251l11 -11v-122l-11 -11h-251v-138h357zM426 861l86 -117l-11 -11h-113l-16 11l-40 54l-39 -54l-16 -11h-113l-11 11l86 117l17 11h153z" />
    <glyph glyph-name="Edieresis" unicode="&#xcb;" horiz-adv-x="660" 
d="M589 150l11 -11v-128l-11 -11h-503l-11 11v663l11 11h501l11 -11v-128l-11 -11h-355v-103h251l11 -11v-122l-11 -11h-251v-138h357zM291 872l11 -11v-117l-11 -11h-135l-11 11v117l11 11h135zM518 872l11 -11v-117l-11 -11h-135l-11 11v117l11 11h135z" />
    <glyph glyph-name="Igrave" unicode="&#xcc;" horiz-adv-x="520" 
d="M338 535v-385h111l11 -11v-128l-11 -11h-378l-11 11v128l11 11h110v385h-110l-11 11v128l11 11h378l11 -11v-128l-11 -11h-111zM103 861l10 11h145l15 -11l78 -117l-10 -11h-114l-17 7z" />
    <glyph glyph-name="Iacute" unicode="&#xcd;" horiz-adv-x="520" 
d="M338 535v-385h111l11 -11v-128l-11 -11h-378l-11 11v128l11 11h110v385h-110l-11 11v128l11 11h378l11 -11v-128l-11 -11h-111zM407 872l10 -11l-107 -121l-17 -7h-114l-10 11l78 117l15 11h145z" />
    <glyph glyph-name="Icircumflex" unicode="&#xce;" horiz-adv-x="520" 
d="M338 535v-385h111l11 -11v-128l-11 -11h-378l-11 11v128l11 11h110v385h-110l-11 11v128l11 11h378l11 -11v-128l-11 -11h-111zM355 861l86 -117l-11 -11h-113l-16 11l-40 54l-39 -54l-16 -11h-113l-11 11l86 117l17 11h153z" />
    <glyph glyph-name="Idieresis" unicode="&#xcf;" horiz-adv-x="520" 
d="M338 535v-385h111l11 -11v-128l-11 -11h-378l-11 11v128l11 11h110v385h-110l-11 11v128l11 11h378l11 -11v-128l-11 -11h-111zM214 872l11 -11v-117l-11 -11h-135l-11 11v117l11 11h135zM441 872l11 -11v-117l-11 -11h-135l-11 11v117l11 11h135z" />
    <glyph glyph-name="Eth" unicode="&#xd0;" horiz-adv-x="691" 
d="M367 685q121 0 195 -56.5t74 -168.5v-235q0 -112 -74 -168.5t-195 -56.5h-256l-11 11v263h-71l-11 11v109l11 11h71v269l11 11h256zM479 242v201q0 47 -31 73.5t-81 26.5h-110v-138h79l11 -11v-109l-11 -11h-79v-132h110q50 0 81 26.5t31 73.5z" />
    <glyph glyph-name="Ntilde" unicode="&#xd1;" horiz-adv-x="682" 
d="M596 685l11 -11v-663l-11 -11h-152l-15 9l-203 408v-406l-11 -11h-129l-11 11v663l11 11h152l15 -8l203 -409v406l11 11h129zM506 878l11 -11v-81l-11 -11h-73q-9 0 -23 -4l-103 -33q-13 -5 -25 -5h-105l-11 11v81l11 11h73q9 0 23 4l103 33q13 5 25 5h105z" />
    <glyph glyph-name="Ograve" unicode="&#xd2;" 
d="M322 700q47 0 93 -14.5t86 -43t65 -77t25 -109.5v-228q0 -60 -25 -108.5t-65 -77t-86 -43t-92 -14.5q-47 0 -92.5 14.5t-85.5 43t-65 77t-25 108.5v228q0 80 43 137.5t102 82t122 24.5zM434 252v181q0 51 -31.5 84t-80.5 33t-79.5 -33t-30.5 -84v-181q0 -52 31 -84.5
t80 -32.5t80 32.5t31 84.5zM162 861l10 11h145l15 -11l78 -117l-10 -11h-114l-17 7z" />
    <glyph glyph-name="Oacute" unicode="&#xd3;" 
d="M322 700q47 0 93 -14.5t86 -43t65 -77t25 -109.5v-228q0 -60 -25 -108.5t-65 -77t-86 -43t-92 -14.5q-47 0 -92.5 14.5t-85.5 43t-65 77t-25 108.5v228q0 80 43 137.5t102 82t122 24.5zM434 252v181q0 51 -31.5 84t-80.5 33t-79.5 -33t-30.5 -84v-181q0 -52 31 -84.5
t80 -32.5t80 32.5t31 84.5zM476 872l10 -11l-107 -121l-17 -7h-114l-10 11l78 117l15 11h145z" />
    <glyph glyph-name="Ocircumflex" unicode="&#xd4;" 
d="M322 700q47 0 93 -14.5t86 -43t65 -77t25 -109.5v-228q0 -60 -25 -108.5t-65 -77t-86 -43t-92 -14.5q-47 0 -92.5 14.5t-85.5 43t-65 77t-25 108.5v228q0 80 43 137.5t102 82t122 24.5zM434 252v181q0 51 -31.5 84t-80.5 33t-79.5 -33t-30.5 -84v-181q0 -52 31 -84.5
t80 -32.5t80 32.5t31 84.5zM416 861l86 -117l-11 -11h-113l-16 11l-40 54l-39 -54l-16 -11h-113l-11 11l86 117l17 11h153z" />
    <glyph glyph-name="Otilde" unicode="&#xd5;" 
d="M322 700q47 0 93 -14.5t86 -43t65 -77t25 -109.5v-228q0 -60 -25 -108.5t-65 -77t-86 -43t-92 -14.5q-47 0 -92.5 14.5t-85.5 43t-65 77t-25 108.5v228q0 80 43 137.5t102 82t122 24.5zM434 252v181q0 51 -31.5 84t-80.5 33t-79.5 -33t-30.5 -84v-181q0 -52 31 -84.5
t80 -32.5t80 32.5t31 84.5zM488 878l11 -11v-81l-11 -11h-73q-9 0 -23 -4l-103 -33q-13 -5 -25 -5h-105l-11 11v81l11 11h73q9 0 23 4l103 33q13 5 25 5h105z" />
    <glyph glyph-name="Odieresis" unicode="&#xd6;" 
d="M322 700q47 0 93 -14.5t86 -43t65 -77t25 -109.5v-228q0 -60 -25 -108.5t-65 -77t-86 -43t-92 -14.5q-47 0 -92.5 14.5t-85.5 43t-65 77t-25 108.5v228q0 80 43 137.5t102 82t122 24.5zM434 252v181q0 51 -31.5 84t-80.5 33t-79.5 -33t-30.5 -84v-181q0 -52 31 -84.5
t80 -32.5t80 32.5t31 84.5zM277 872l11 -11v-117l-11 -11h-135l-11 11v117l11 11h135zM504 872l11 -11v-117l-11 -11h-135l-11 11v117l11 11h135z" />
    <glyph glyph-name="multiply" unicode="&#xd7;" horiz-adv-x="557" 
d="M487 485v-15l-119 -119l119 -118v-16l-75 -74h-15l-119 118l-118 -118h-16l-74 74v16l119 118l-119 119v15l74 74h16l118 -118l119 118h15z" />
    <glyph glyph-name="Oslash" unicode="&#xd8;" 
d="M322 700q38 0 75 -10l27 62l17 6l105 -47l5 -16l-31 -70q71 -66 71 -169v-228q0 -60 -25 -108.5t-65 -77t-86 -43t-92 -14.5q-39 0 -75 10l-25 -61l-16 -7l-106 45l-6 17l30 70q-70 67 -70 169v228q0 80 43 137.5t102 82t122 24.5zM434 252v181q0 51 -31.5 84t-80.5 33
t-79.5 -33t-30.5 -84v-181q0 -52 31 -84.5t80 -32.5t80 32.5t31 84.5z" />
    <glyph glyph-name="Ugrave" unicode="&#xd9;" horiz-adv-x="678" 
d="M597 685l11 -11v-445q0 -61 -25 -109.5t-65 -77t-86 -43t-93 -14.5t-93 14.5t-86 43t-65 77t-25 109.5v445l11 11h135l11 -11v-422q0 -52 31 -84.5t81 -32.5t81 32.5t31 84.5v422l11 11h135zM177 861l10 11h145l15 -11l78 -117l-10 -11h-114l-17 7z" />
    <glyph glyph-name="Uacute" unicode="&#xda;" horiz-adv-x="678" 
d="M597 685l11 -11v-445q0 -61 -25 -109.5t-65 -77t-86 -43t-93 -14.5t-93 14.5t-86 43t-65 77t-25 109.5v445l11 11h135l11 -11v-422q0 -52 31 -84.5t81 -32.5t81 32.5t31 84.5v422l11 11h135zM491 872l10 -11l-107 -121l-17 -7h-114l-10 11l78 117l15 11h145z" />
    <glyph glyph-name="Ucircumflex" unicode="&#xdb;" horiz-adv-x="678" 
d="M597 685l11 -11v-445q0 -61 -25 -109.5t-65 -77t-86 -43t-93 -14.5t-93 14.5t-86 43t-65 77t-25 109.5v445l11 11h135l11 -11v-422q0 -52 31 -84.5t81 -32.5t81 32.5t31 84.5v422l11 11h135zM433 861l86 -117l-11 -11h-113l-16 11l-40 54l-39 -54l-16 -11h-113l-11 11
l86 117l17 11h153z" />
    <glyph glyph-name="Udieresis" unicode="&#xdc;" horiz-adv-x="678" 
d="M597 685l11 -11v-445q0 -61 -25 -109.5t-65 -77t-86 -43t-93 -14.5t-93 14.5t-86 43t-65 77t-25 109.5v445l11 11h135l11 -11v-422q0 -52 31 -84.5t81 -32.5t81 32.5t31 84.5v422l11 11h135zM293 872l11 -11v-117l-11 -11h-135l-11 11v117l11 11h135zM520 872l11 -11
v-117l-11 -11h-135l-11 11v117l11 11h135z" />
    <glyph glyph-name="Yacute" unicode="&#xdd;" horiz-adv-x="640" 
d="M624 685l6 -10l-232 -436v-228l-10 -11h-136l-11 11v228l-231 436l6 10h153l16 -8l137 -277l139 277l17 8h146zM481 872l10 -11l-107 -121l-17 -7h-114l-10 11l78 117l15 11h145z" />
    <glyph glyph-name="Thorn" unicode="&#xde;" horiz-adv-x="628" 
d="M347 569q123 0 190 -64t67 -162t-67 -162.5t-190 -64.5h-115v-105l-11 -11h-135l-11 11v663l11 11h135l11 -11v-105h115zM358 258q41 0 65 24.5t24 59.5t-24 59t-65 24h-126v-167h126z" />
    <glyph glyph-name="germandbls" unicode="&#xdf;" horiz-adv-x="1188" 
d="M376 403q180 -51 180 -205q0 -98 -71 -155.5t-193 -57.5q-119 0 -191.5 64.5t-72.5 172.5l11 11h135l11 -11q0 -42 31 -69t84 -27q42 0 70.5 18t28.5 51q0 40 -30 55.5t-121 37.5q-96 23 -149 68.5t-53 137.5q0 98 72.5 152t176.5 54q101 0 174.5 -57t73.5 -164l-11 -11
h-135l-11 11q-2 82 -95 82q-42 0 -65 -17t-23 -47q0 -13 3 -22t11.5 -16.5t17 -12.5t25.5 -10.5t31 -9t39.5 -10.5zM970 403q180 -51 180 -205q0 -98 -71 -155.5t-193 -57.5q-119 0 -191.5 64.5t-72.5 172.5l11 11h135l11 -11q0 -42 31 -69t84 -27q42 0 70.5 18t28.5 51
q0 40 -30 55.5t-121 37.5q-96 23 -149 68.5t-53 137.5q0 98 72.5 152t176.5 54q101 0 174.5 -57t73.5 -164l-11 -11h-135l-11 11q-2 82 -95 82q-42 0 -65 -17t-23 -47q0 -13 3 -22t11.5 -16.5t17 -12.5t25.5 -10.5t31 -9t39.5 -10.5z" />
    <glyph glyph-name="agrave" unicode="&#xe0;" horiz-adv-x="642" 
d="M429 674l198 -663l-11 -11h-142l-11 11l-36 129h-216l-36 -129l-11 -11h-138l-11 11l198 663l11 11h194zM321 530l-70 -249h138zM145 861l10 11h145l15 -11l78 -117l-10 -11h-114l-17 7z" />
    <glyph glyph-name="aacute" unicode="&#xe1;" horiz-adv-x="642" 
d="M429 674l198 -663l-11 -11h-142l-11 11l-36 129h-216l-36 -129l-11 -11h-138l-11 11l198 663l11 11h194zM321 530l-70 -249h138zM488 872l10 -11l-107 -121l-17 -7h-114l-10 11l78 117l15 11h145z" />
    <glyph glyph-name="acircumflex" unicode="&#xe2;" horiz-adv-x="642" 
d="M429 674l198 -663l-11 -11h-142l-11 11l-36 129h-216l-36 -129l-11 -11h-138l-11 11l198 663l11 11h194zM321 530l-70 -249h138zM415 861l86 -117l-11 -11h-113l-16 11l-40 54l-39 -54l-16 -11h-113l-11 11l86 117l17 11h153z" />
    <glyph glyph-name="atilde" unicode="&#xe3;" horiz-adv-x="642" 
d="M429 674l198 -663l-11 -11h-142l-11 11l-36 129h-216l-36 -129l-11 -11h-138l-11 11l198 663l11 11h194zM321 530l-70 -249h138zM486 878l11 -11v-81l-11 -11h-73q-9 0 -23 -4l-103 -33q-13 -5 -25 -5h-105l-11 11v81l11 11h73q9 0 23 4l103 33q13 5 25 5h105z" />
    <glyph glyph-name="adieresis" unicode="&#xe4;" horiz-adv-x="642" 
d="M429 674l198 -663l-11 -11h-142l-11 11l-36 129h-216l-36 -129l-11 -11h-138l-11 11l198 663l11 11h194zM321 530l-70 -249h138zM276 872l11 -11v-117l-11 -11h-135l-11 11v117l11 11h135zM503 872l11 -11v-117l-11 -11h-135l-11 11v117l11 11h135z" />
    <glyph glyph-name="aring" unicode="&#xe5;" horiz-adv-x="642" 
d="M321 877q54 0 92 -38t38 -92q0 -42 -22 -73l198 -663l-11 -11h-142l-11 11l-36 129h-216l-36 -129l-11 -11h-138l-11 11l198 663q-22 31 -22 73q0 54 38.5 92t91.5 38zM321 530l-70 -249h138zM321 687q25 0 42.5 17.5t17.5 42.5t-17.5 42.5t-42.5 17.5t-42.5 -17.5
t-17.5 -42.5t17.5 -42.5t42.5 -17.5z" />
    <glyph glyph-name="ae" unicode="&#xe6;" horiz-adv-x="958" 
d="M887 149l11 -11v-127l-11 -11h-449l-11 11v129h-189l-60 -129l-11 -11h-146l-11 11l315 663l11 11h549l11 -11v-128l-11 -11h-301v-103h197l11 -11v-122l-11 -11h-197v-139h303zM427 545l-123 -264h123v264z" />
    <glyph glyph-name="ccedilla" unicode="&#xe7;" horiz-adv-x="636" 
d="M580 273l11 -11v-33q0 -97 -58 -157.5t-142 -78.5l-84 -132l-17 -9h-105l-10 11l66 133q-80 22 -133 81t-53 152v227q0 61 25 109.5t65 77t85.5 43t92.5 14.5t92.5 -14.5t85.5 -43t65 -77t25 -109.5v-23l-11 -11h-135l-11 11q0 52 -31 84.5t-80 32.5t-80 -32.5t-31 -84.5
v-181q0 -52 31 -84.5t81 -32.5q49 0 79.5 32.5t30.5 84.5v10l11 11h135z" />
    <glyph glyph-name="egrave" unicode="&#xe8;" horiz-adv-x="660" 
d="M589 150l11 -11v-128l-11 -11h-503l-11 11v663l11 11h501l11 -11v-128l-11 -11h-355v-103h251l11 -11v-122l-11 -11h-251v-138h357zM180 861l10 11h145l15 -11l78 -117l-10 -11h-114l-17 7z" />
    <glyph glyph-name="eacute" unicode="&#xe9;" horiz-adv-x="660" 
d="M589 150l11 -11v-128l-11 -11h-503l-11 11v663l11 11h501l11 -11v-128l-11 -11h-355v-103h251l11 -11v-122l-11 -11h-251v-138h357zM480 872l10 -11l-107 -121l-17 -7h-114l-10 11l78 117l15 11h145z" />
    <glyph glyph-name="ecircumflex" unicode="&#xea;" horiz-adv-x="660" 
d="M589 150l11 -11v-128l-11 -11h-503l-11 11v663l11 11h501l11 -11v-128l-11 -11h-355v-103h251l11 -11v-122l-11 -11h-251v-138h357zM426 861l86 -117l-11 -11h-113l-16 11l-40 54l-39 -54l-16 -11h-113l-11 11l86 117l17 11h153z" />
    <glyph glyph-name="edieresis" unicode="&#xeb;" horiz-adv-x="660" 
d="M589 150l11 -11v-128l-11 -11h-503l-11 11v663l11 11h501l11 -11v-128l-11 -11h-355v-103h251l11 -11v-122l-11 -11h-251v-138h357zM291 872l11 -11v-117l-11 -11h-135l-11 11v117l11 11h135zM518 872l11 -11v-117l-11 -11h-135l-11 11v117l11 11h135z" />
    <glyph glyph-name="igrave" unicode="&#xec;" horiz-adv-x="520" 
d="M338 535v-385h111l11 -11v-128l-11 -11h-378l-11 11v128l11 11h110v385h-110l-11 11v128l11 11h378l11 -11v-128l-11 -11h-111zM103 861l10 11h145l15 -11l78 -117l-10 -11h-114l-17 7z" />
    <glyph glyph-name="iacute" unicode="&#xed;" horiz-adv-x="520" 
d="M338 535v-385h111l11 -11v-128l-11 -11h-378l-11 11v128l11 11h110v385h-110l-11 11v128l11 11h378l11 -11v-128l-11 -11h-111zM407 872l10 -11l-107 -121l-17 -7h-114l-10 11l78 117l15 11h145z" />
    <glyph glyph-name="icircumflex" unicode="&#xee;" horiz-adv-x="520" 
d="M338 535v-385h111l11 -11v-128l-11 -11h-378l-11 11v128l11 11h110v385h-110l-11 11v128l11 11h378l11 -11v-128l-11 -11h-111zM355 861l86 -117l-11 -11h-113l-16 11l-40 54l-39 -54l-16 -11h-113l-11 11l86 117l17 11h153z" />
    <glyph glyph-name="idieresis" unicode="&#xef;" horiz-adv-x="520" 
d="M338 535v-385h111l11 -11v-128l-11 -11h-378l-11 11v128l11 11h110v385h-110l-11 11v128l11 11h378l11 -11v-128l-11 -11h-111zM214 872l11 -11v-117l-11 -11h-135l-11 11v117l11 11h135zM441 872l11 -11v-117l-11 -11h-135l-11 11v117l11 11h135z" />
    <glyph glyph-name="eth" unicode="&#xf0;" horiz-adv-x="691" 
d="M367 685q121 0 195 -56.5t74 -168.5v-235q0 -112 -74 -168.5t-195 -56.5h-256l-11 11v263h-71l-11 11v109l11 11h71v269l11 11h256zM479 242v201q0 47 -31 73.5t-81 26.5h-110v-138h79l11 -11v-109l-11 -11h-79v-132h110q50 0 81 26.5t31 73.5z" />
    <glyph glyph-name="ntilde" unicode="&#xf1;" horiz-adv-x="682" 
d="M596 685l11 -11v-663l-11 -11h-152l-15 9l-203 408v-406l-11 -11h-129l-11 11v663l11 11h152l15 -8l203 -409v406l11 11h129zM506 878l11 -11v-81l-11 -11h-73q-9 0 -23 -4l-103 -33q-13 -5 -25 -5h-105l-11 11v81l11 11h73q9 0 23 4l103 33q13 5 25 5h105z" />
    <glyph glyph-name="ograve" unicode="&#xf2;" 
d="M322 700q47 0 93 -14.5t86 -43t65 -77t25 -109.5v-228q0 -60 -25 -108.5t-65 -77t-86 -43t-92 -14.5q-47 0 -92.5 14.5t-85.5 43t-65 77t-25 108.5v228q0 80 43 137.5t102 82t122 24.5zM434 252v181q0 51 -31.5 84t-80.5 33t-79.5 -33t-30.5 -84v-181q0 -52 31 -84.5
t80 -32.5t80 32.5t31 84.5zM162 861l10 11h145l15 -11l78 -117l-10 -11h-114l-17 7z" />
    <glyph glyph-name="oacute" unicode="&#xf3;" 
d="M322 700q47 0 93 -14.5t86 -43t65 -77t25 -109.5v-228q0 -60 -25 -108.5t-65 -77t-86 -43t-92 -14.5q-47 0 -92.5 14.5t-85.5 43t-65 77t-25 108.5v228q0 80 43 137.5t102 82t122 24.5zM434 252v181q0 51 -31.5 84t-80.5 33t-79.5 -33t-30.5 -84v-181q0 -52 31 -84.5
t80 -32.5t80 32.5t31 84.5zM476 872l10 -11l-107 -121l-17 -7h-114l-10 11l78 117l15 11h145z" />
    <glyph glyph-name="ocircumflex" unicode="&#xf4;" 
d="M322 700q47 0 93 -14.5t86 -43t65 -77t25 -109.5v-228q0 -60 -25 -108.5t-65 -77t-86 -43t-92 -14.5q-47 0 -92.5 14.5t-85.5 43t-65 77t-25 108.5v228q0 80 43 137.5t102 82t122 24.5zM434 252v181q0 51 -31.5 84t-80.5 33t-79.5 -33t-30.5 -84v-181q0 -52 31 -84.5
t80 -32.5t80 32.5t31 84.5zM277 872l11 -11v-117l-11 -11h-135l-11 11v117l11 11h135zM504 872l11 -11v-117l-11 -11h-135l-11 11v117l11 11h135z" />
    <glyph glyph-name="otilde" unicode="&#xf5;" 
d="M322 700q47 0 93 -14.5t86 -43t65 -77t25 -109.5v-228q0 -60 -25 -108.5t-65 -77t-86 -43t-92 -14.5q-47 0 -92.5 14.5t-85.5 43t-65 77t-25 108.5v228q0 80 43 137.5t102 82t122 24.5zM434 252v181q0 51 -31.5 84t-80.5 33t-79.5 -33t-30.5 -84v-181q0 -52 31 -84.5
t80 -32.5t80 32.5t31 84.5zM488 878l11 -11v-81l-11 -11h-73q-9 0 -23 -4l-103 -33q-13 -5 -25 -5h-105l-11 11v81l11 11h73q9 0 23 4l103 33q13 5 25 5h105z" />
    <glyph glyph-name="odieresis" unicode="&#xf6;" 
d="M322 700q47 0 93 -14.5t86 -43t65 -77t25 -109.5v-228q0 -60 -25 -108.5t-65 -77t-86 -43t-92 -14.5q-47 0 -92.5 14.5t-85.5 43t-65 77t-25 108.5v228q0 80 43 137.5t102 82t122 24.5zM434 252v181q0 51 -31.5 84t-80.5 33t-79.5 -33t-30.5 -84v-181q0 -52 31 -84.5
t80 -32.5t80 32.5t31 84.5zM277 872l11 -11v-117l-11 -11h-135l-11 11v117l11 11h135zM504 872l11 -11v-117l-11 -11h-135l-11 11v117l11 11h135z" />
    <glyph glyph-name="oslash" unicode="&#xf8;" 
d="M322 700q38 0 75 -10l27 62l17 6l105 -47l5 -16l-31 -70q71 -66 71 -169v-228q0 -60 -25 -108.5t-65 -77t-86 -43t-92 -14.5q-39 0 -75 10l-25 -61l-16 -7l-106 45l-6 17l30 70q-70 67 -70 169v228q0 80 43 137.5t102 82t122 24.5zM434 252v181q0 51 -31.5 84t-80.5 33
t-79.5 -33t-30.5 -84v-181q0 -52 31 -84.5t80 -32.5t80 32.5t31 84.5z" />
    <glyph glyph-name="ugrave" unicode="&#xf9;" horiz-adv-x="678" 
d="M597 685l11 -11v-445q0 -61 -25 -109.5t-65 -77t-86 -43t-93 -14.5t-93 14.5t-86 43t-65 77t-25 109.5v445l11 11h135l11 -11v-422q0 -52 31 -84.5t81 -32.5t81 32.5t31 84.5v422l11 11h135zM177 861l10 11h145l15 -11l78 -117l-10 -11h-114l-17 7z" />
    <glyph glyph-name="uacute" unicode="&#xfa;" horiz-adv-x="678" 
d="M597 685l11 -11v-445q0 -61 -25 -109.5t-65 -77t-86 -43t-93 -14.5t-93 14.5t-86 43t-65 77t-25 109.5v445l11 11h135l11 -11v-422q0 -52 31 -84.5t81 -32.5t81 32.5t31 84.5v422l11 11h135zM491 872l10 -11l-107 -121l-17 -7h-114l-10 11l78 117l15 11h145z" />
    <glyph glyph-name="ucircumflex" unicode="&#xfb;" horiz-adv-x="678" 
d="M597 685l11 -11v-445q0 -61 -25 -109.5t-65 -77t-86 -43t-93 -14.5t-93 14.5t-86 43t-65 77t-25 109.5v445l11 11h135l11 -11v-422q0 -52 31 -84.5t81 -32.5t81 32.5t31 84.5v422l11 11h135zM433 861l86 -117l-11 -11h-113l-16 11l-40 54l-39 -54l-16 -11h-113l-11 11
l86 117l17 11h153z" />
    <glyph glyph-name="udieresis" unicode="&#xfc;" horiz-adv-x="678" 
d="M597 685l11 -11v-445q0 -61 -25 -109.5t-65 -77t-86 -43t-93 -14.5t-93 14.5t-86 43t-65 77t-25 109.5v445l11 11h135l11 -11v-422q0 -52 31 -84.5t81 -32.5t81 32.5t31 84.5v422l11 11h135zM293 872l11 -11v-117l-11 -11h-135l-11 11v117l11 11h135zM520 872l11 -11
v-117l-11 -11h-135l-11 11v117l11 11h135z" />
    <glyph glyph-name="yacute" unicode="&#xfd;" horiz-adv-x="640" 
d="M624 685l6 -10l-232 -436v-228l-10 -11h-136l-11 11v228l-231 436l6 10h153l16 -8l137 -277l139 277l17 8h146zM481 872l10 -11l-107 -121l-17 -7h-114l-10 11l78 117l15 11h145z" />
    <glyph glyph-name="thorn" unicode="&#xfe;" horiz-adv-x="628" 
d="M347 569q123 0 190 -64t67 -162t-67 -162.5t-190 -64.5h-115v-105l-11 -11h-135l-11 11v663l11 11h135l11 -11v-105h115zM358 258q41 0 65 24.5t24 59.5t-24 59t-65 24h-126v-167h126z" />
    <glyph glyph-name="ydieresis" unicode="&#xff;" horiz-adv-x="640" 
d="M624 685l6 -10l-232 -436v-228l-10 -11h-136l-11 11v228l-231 436l6 10h153l16 -8l137 -277l139 277l17 8h146zM274 872l11 -11v-117l-11 -11h-135l-11 11v117l11 11h135zM501 872l11 -11v-117l-11 -11h-135l-11 11v117l11 11h135z" />
    <glyph glyph-name="Amacron" unicode="&#x100;" horiz-adv-x="642" 
d="M429 674l198 -663l-11 -11h-142l-11 11l-36 129h-216l-36 -129l-11 -11h-138l-11 11l198 663l11 11h194zM321 530l-70 -249h138zM486 848l11 -11v-81l-11 -11h-329l-11 11v81l11 11h329z" />
    <glyph glyph-name="amacron" unicode="&#x101;" horiz-adv-x="642" 
d="M429 674l198 -663l-11 -11h-142l-11 11l-36 129h-216l-36 -129l-11 -11h-138l-11 11l198 663l11 11h194zM321 530l-70 -249h138zM486 848l11 -11v-81l-11 -11h-329l-11 11v81l11 11h329z" />
    <glyph glyph-name="Aogonek" unicode="&#x104;" horiz-adv-x="642" 
d="M614 -63h7l6 -8v-89l-8 -8h-7q-134 0 -134 100q0 37 24 68h-28l-11 11l-36 129h-216l-36 -129l-11 -11h-138l-11 11l198 663l11 11h194l11 -11l198 -663l-11 -11q-31 -15 -31 -38q0 -10 7.5 -17.5t21.5 -7.5zM321 530l-70 -249h138z" />
    <glyph glyph-name="aogonek" unicode="&#x105;" horiz-adv-x="642" 
d="M614 -63h7l6 -8v-89l-8 -8h-7q-134 0 -134 100q0 37 24 68h-28l-11 11l-36 129h-216l-36 -129l-11 -11h-138l-11 11l198 663l11 11h194l11 -11l198 -663l-11 -11q-31 -15 -31 -38q0 -10 7.5 -17.5t21.5 -7.5zM321 530l-70 -249h138z" />
    <glyph glyph-name="Cacute" unicode="&#x106;" horiz-adv-x="636" 
d="M580 273l11 -11v-33q0 -80 -43 -137.5t-102 -82t-122 -24.5q-47 0 -93 14.5t-86 43t-65 77t-25 109.5v227q0 61 25 109.5t65 77t85.5 43t92.5 14.5t92.5 -14.5t85.5 -43t65 -77t25 -109.5v-23l-11 -11h-135l-11 11q0 52 -31 84.5t-80 32.5t-80 -32.5t-31 -84.5v-181
q0 -52 31 -84.5t81 -32.5q49 0 79.5 32.5t30.5 84.5v10l11 11h135zM483 872l10 -11l-107 -121l-17 -7h-114l-10 11l78 117l15 11h145z" />
    <glyph glyph-name="cacute" unicode="&#x107;" horiz-adv-x="636" 
d="M580 273l11 -11v-33q0 -80 -43 -137.5t-102 -82t-122 -24.5q-47 0 -93 14.5t-86 43t-65 77t-25 109.5v227q0 61 25 109.5t65 77t85.5 43t92.5 14.5t92.5 -14.5t85.5 -43t65 -77t25 -109.5v-23l-11 -11h-135l-11 11q0 52 -31 84.5t-80 32.5t-80 -32.5t-31 -84.5v-181
q0 -52 31 -84.5t81 -32.5q49 0 79.5 32.5t30.5 84.5v10l11 11h135zM483 872l10 -11l-107 -121l-17 -7h-114l-10 11l78 117l15 11h145z" />
    <glyph glyph-name="Ccaron" unicode="&#x10c;" horiz-adv-x="636" 
d="M580 273l11 -11v-33q0 -80 -43 -137.5t-102 -82t-122 -24.5q-47 0 -93 14.5t-86 43t-65 77t-25 109.5v227q0 61 25 109.5t65 77t85.5 43t92.5 14.5t92.5 -14.5t85.5 -43t65 -77t25 -109.5v-23l-11 -11h-135l-11 11q0 52 -31 84.5t-80 32.5t-80 -32.5t-31 -84.5v-181
q0 -52 31 -84.5t81 -32.5q49 0 79.5 32.5t30.5 84.5v10l11 11h135zM231 744l-86 117l11 11h113l16 -11l40 -54l39 54l16 11h113l11 -11l-86 -117l-17 -11h-153z" />
    <glyph glyph-name="ccaron" unicode="&#x10d;" horiz-adv-x="636" 
d="M580 273l11 -11v-33q0 -80 -43 -137.5t-102 -82t-122 -24.5q-47 0 -93 14.5t-86 43t-65 77t-25 109.5v227q0 61 25 109.5t65 77t85.5 43t92.5 14.5t92.5 -14.5t85.5 -43t65 -77t25 -109.5v-23l-11 -11h-135l-11 11q0 52 -31 84.5t-80 32.5t-80 -32.5t-31 -84.5v-181
q0 -52 31 -84.5t81 -32.5q49 0 79.5 32.5t30.5 84.5v10l11 11h135zM231 744l-86 117l11 11h113l16 -11l40 -54l39 54l16 11h113l11 -11l-86 -117l-17 -11h-153z" />
    <glyph glyph-name="Dcroat" unicode="&#x110;" horiz-adv-x="691" 
d="M367 685q121 0 195 -56.5t74 -168.5v-235q0 -112 -74 -168.5t-195 -56.5h-256l-11 11v263h-71l-11 11v109l11 11h71v269l11 11h256zM479 242v201q0 47 -31 73.5t-81 26.5h-110v-138h79l11 -11v-109l-11 -11h-79v-132h110q50 0 81 26.5t31 73.5z" />
    <glyph glyph-name="dcroat" unicode="&#x111;" horiz-adv-x="691" 
d="M367 685q121 0 195 -56.5t74 -168.5v-235q0 -112 -74 -168.5t-195 -56.5h-256l-11 11v263h-71l-11 11v109l11 11h71v269l11 11h256zM479 242v201q0 47 -31 73.5t-81 26.5h-110v-138h79l11 -11v-109l-11 -11h-79v-132h110q50 0 81 26.5t31 73.5z" />
    <glyph glyph-name="Emacron" unicode="&#x112;" horiz-adv-x="660" 
d="M589 150l11 -11v-128l-11 -11h-503l-11 11v663l11 11h501l11 -11v-128l-11 -11h-355v-103h251l11 -11v-122l-11 -11h-251v-138h357zM501 848l11 -11v-81l-11 -11h-329l-11 11v81l11 11h329z" />
    <glyph glyph-name="emacron" unicode="&#x113;" horiz-adv-x="660" 
d="M589 150l11 -11v-128l-11 -11h-503l-11 11v663l11 11h501l11 -11v-128l-11 -11h-355v-103h251l11 -11v-122l-11 -11h-251v-138h357zM502 848l11 -11v-81l-11 -11h-329l-11 11v81l11 11h329z" />
    <glyph glyph-name="Edotaccent" unicode="&#x116;" horiz-adv-x="660" 
d="M589 150l11 -11v-128l-11 -11h-503l-11 11v663l11 11h501l11 -11v-128l-11 -11h-355v-103h251l11 -11v-122l-11 -11h-251v-138h357zM405 872l11 -11v-117l-11 -11h-135l-11 11v117l11 11h135z" />
    <glyph glyph-name="edotaccent" unicode="&#x117;" horiz-adv-x="660" 
d="M589 150l11 -11v-128l-11 -11h-503l-11 11v663l11 11h501l11 -11v-128l-11 -11h-355v-103h251l11 -11v-122l-11 -11h-251v-138h357zM405 872l11 -11v-117l-11 -11h-135l-11 11v117l11 11h135z" />
    <glyph glyph-name="Eogonek" unicode="&#x118;" horiz-adv-x="660" 
d="M587 -63h7l6 -8v-89l-8 -8h-7q-134 0 -134 100q0 37 24 68h-389l-11 11v663l11 11h501l11 -11v-128l-11 -11h-355v-103h251l11 -11v-122l-11 -11h-251v-138h357l11 -11v-128l-11 -11q-31 -15 -31 -38q0 -10 7.5 -17.5t21.5 -7.5z" />
    <glyph glyph-name="eogonek" unicode="&#x119;" horiz-adv-x="660" 
d="M587 -63h7l6 -8v-89l-8 -8h-7q-134 0 -134 100q0 37 24 68h-389l-11 11v663l11 11h501l11 -11v-128l-11 -11h-355v-103h251l11 -11v-122l-11 -11h-251v-138h357l11 -11v-128l-11 -11q-31 -15 -31 -38q0 -10 7.5 -17.5t21.5 -7.5z" />
    <glyph glyph-name="uni0122" unicode="&#x122;" 
d="M337 371h243l11 -11v-129q0 -62 -25 -110.5t-65 -77.5t-85.5 -43.5t-91.5 -14.5q-47 0 -93 14.5t-86 43t-65 77t-25 109.5v227q0 61 25 109.5t65 77t85.5 43t92.5 14.5t92.5 -14.5t85.5 -43t65 -77t25 -109.5v-20l-11 -11h-135l-11 11q0 51 -31 82.5t-80 31.5t-80 -32.5
t-31 -84.5v-181q0 -52 31 -84.5t81 -32.5t79 29t31 70h-97l-11 11v115zM394 -63l11 -11v-90l-59 -63l-15 -11h-62l-11 11l62 66h-60l-11 11v76l10 11h135z" />
    <glyph glyph-name="uni0123" unicode="&#x123;" 
d="M337 371h243l11 -11v-129q0 -62 -25 -110.5t-65 -77.5t-85.5 -43.5t-91.5 -14.5q-47 0 -93 14.5t-86 43t-65 77t-25 109.5v227q0 61 25 109.5t65 77t85.5 43t92.5 14.5t92.5 -14.5t85.5 -43t65 -77t25 -109.5v-20l-11 -11h-135l-11 11q0 51 -31 82.5t-80 31.5t-80 -32.5
t-31 -84.5v-181q0 -52 31 -84.5t81 -32.5t79 29t31 70h-97l-11 11v115zM394 -63l11 -11v-90l-59 -63l-15 -11h-62l-11 11l62 66h-60l-11 11v76l10 11h135z" />
    <glyph glyph-name="Itilde" unicode="&#x128;" horiz-adv-x="520" 
d="M338 535v-385h111l11 -11v-128l-11 -11h-378l-11 11v128l11 11h110v385h-110l-11 11v128l11 11h378l11 -11v-128l-11 -11h-111zM425 878l11 -11v-81l-11 -11h-73q-9 0 -23 -4l-103 -33q-13 -5 -25 -5h-105l-11 11v81l11 11h73q9 0 23 4l103 33q13 5 25 5h105z" />
    <glyph glyph-name="itilde" unicode="&#x129;" horiz-adv-x="520" 
d="M338 535v-385h111l11 -11v-128l-11 -11h-378l-11 11v128l11 11h110v385h-110l-11 11v128l11 11h378l11 -11v-128l-11 -11h-111zM425 878l11 -11v-81l-11 -11h-73q-9 0 -23 -4l-103 -33q-13 -5 -25 -5h-105l-11 11v81l11 11h73q9 0 23 4l103 33q13 5 25 5h105z" />
    <glyph glyph-name="Imacron" unicode="&#x12a;" horiz-adv-x="520" 
d="M338 535v-385h111l11 -11v-128l-11 -11h-378l-11 11v128l11 11h110v385h-110l-11 11v128l11 11h378l11 -11v-128l-11 -11h-111zM425 848l11 -11v-81l-11 -11h-329l-11 11v81l11 11h329z" />
    <glyph glyph-name="imacron" unicode="&#x12b;" horiz-adv-x="520" 
d="M338 535v-385h111l11 -11v-128l-11 -11h-378l-11 11v128l11 11h110v385h-110l-11 11v128l11 11h378l11 -11v-128l-11 -11h-111zM425 848l11 -11v-81l-11 -11h-329l-11 11v81l11 11h329z" />
    <glyph glyph-name="Iogonek" unicode="&#x12e;" horiz-adv-x="520" 
d="M338 535v-385h111l11 -11v-128l-11 -11q-31 -15 -31 -38q0 -10 7.5 -17.5t21.5 -7.5h7l6 -8v-89l-8 -8h-7q-134 0 -134 100q0 37 24 68h-264l-11 11v128l11 11h110v385h-110l-11 11v128l11 11h378l11 -11v-128l-11 -11h-111z" />
    <glyph glyph-name="iogonek" unicode="&#x12f;" horiz-adv-x="520" 
d="M338 535v-385h111l11 -11v-128l-11 -11q-31 -15 -31 -38q0 -10 7.5 -17.5t21.5 -7.5h7l6 -8v-89l-8 -8h-7q-134 0 -134 100q0 37 24 68h-264l-11 11v128l11 11h110v385h-110l-11 11v128l11 11h378l11 -11v-128l-11 -11h-111z" />
    <glyph glyph-name="uni0136" unicode="&#x136;" horiz-adv-x="661" 
d="M425 425l211 -414l-8 -11h-152l-14 9l-148 292l-82 -108v-182l-11 -11h-135l-11 11v663l11 11h135l11 -11v-256l210 257l16 10h163l7 -11zM413 -63l11 -11v-90l-59 -63l-15 -11h-62l-11 11l62 66h-60l-11 11v76l10 11h135z" />
    <glyph glyph-name="uni0137" unicode="&#x137;" horiz-adv-x="661" 
d="M425 425l211 -414l-8 -11h-152l-14 9l-148 292l-82 -108v-182l-11 -11h-135l-11 11v663l11 11h135l11 -11v-256l210 257l16 10h163l7 -11zM413 -63l11 -11v-90l-59 -63l-15 -11h-62l-11 11l62 66h-60l-11 11v76l10 11h135z" />
    <glyph glyph-name="kgreenlandic" unicode="&#x138;" horiz-adv-x="661" 
d="M425 425l211 -414l-8 -11h-152l-14 9l-148 292l-82 -108v-182l-11 -11h-135l-11 11v663l11 11h135l11 -11v-256l210 257l16 10h163l7 -11z" />
    <glyph glyph-name="uni013B" unicode="&#x13b;" horiz-adv-x="604" 
d="M558 150l11 -11v-128l-11 -11h-472l-11 11v663l11 11h135l11 -11v-524h326zM391 -63l11 -11v-90l-59 -63l-15 -11h-62l-11 11l62 66h-60l-11 11v76l10 11h135z" />
    <glyph glyph-name="uni013C" unicode="&#x13c;" horiz-adv-x="604" 
d="M558 150l11 -11v-128l-11 -11h-472l-11 11v663l11 11h135l11 -11v-524h326zM391 -63l11 -11v-90l-59 -63l-15 -11h-62l-11 11l62 66h-60l-11 11v76l10 11h135z" />
    <glyph glyph-name="Lslash" unicode="&#x141;" horiz-adv-x="629" 
d="M28 266l-10 9v114l10 10l72 18v257l11 11h135l11 -11v-216l144 37l9 -10v-114l-9 -9l-144 -37v-175h326l11 -11v-128l-11 -11h-472l-11 11v273z" />
    <glyph glyph-name="lslash" unicode="&#x142;" horiz-adv-x="629" 
d="M28 266l-10 9v114l10 10l72 18v257l11 11h135l11 -11v-216l144 37l9 -10v-114l-9 -9l-144 -37v-175h326l11 -11v-128l-11 -11h-472l-11 11v273z" />
    <glyph glyph-name="Nacute" unicode="&#x143;" horiz-adv-x="682" 
d="M596 685l11 -11v-663l-11 -11h-152l-15 9l-203 408v-406l-11 -11h-129l-11 11v663l11 11h152l15 -8l203 -409v406l11 11h129zM493 872l10 -11l-107 -121l-17 -7h-114l-10 11l78 117l15 11h145z" />
    <glyph glyph-name="nacute" unicode="&#x144;" horiz-adv-x="682" 
d="M596 685l11 -11v-663l-11 -11h-152l-15 9l-203 408v-406l-11 -11h-129l-11 11v663l11 11h152l15 -8l203 -409v406l11 11h129zM493 872l10 -11l-107 -121l-17 -7h-114l-10 11l78 117l15 11h145z" />
    <glyph glyph-name="uni0145" unicode="&#x145;" horiz-adv-x="682" 
d="M596 685l11 -11v-663l-11 -11h-152l-15 9l-203 408v-406l-11 -11h-129l-11 11v663l11 11h152l15 -8l203 -409v406l11 11h129zM413 -63l11 -11v-90l-59 -63l-15 -11h-62l-11 11l62 66h-60l-11 11v76l10 11h135z" />
    <glyph glyph-name="uni0146" unicode="&#x146;" horiz-adv-x="682" 
d="M596 685l11 -11v-663l-11 -11h-152l-15 9l-203 408v-406l-11 -11h-129l-11 11v663l11 11h152l15 -8l203 -409v406l11 11h129zM413 -63l11 -11v-90l-59 -63l-15 -11h-62l-11 11l62 66h-60l-11 11v76l10 11h135z" />
    <glyph glyph-name="Eng" unicode="&#x14a;" horiz-adv-x="682" 
d="M596 685l11 -11v-663q0 -103 -72.5 -167t-181.5 -64l-11 11v127l11 11q35 0 59 19t32 52l-15 9l-203 408v-406l-11 -11h-129l-11 11v663l11 11h152l15 -8l203 -409v406l11 11h129z" />
    <glyph glyph-name="eng" unicode="&#x14b;" horiz-adv-x="682" 
d="M596 685l11 -11v-663q0 -103 -72.5 -167t-181.5 -64l-11 11v127l11 11q35 0 59 19t32 52l-15 9l-203 408v-406l-11 -11h-129l-11 11v663l11 11h152l15 -8l203 -409v406l11 11h129z" />
    <glyph glyph-name="Omacron" unicode="&#x14c;" 
d="M322 700q47 0 93 -14.5t86 -43t65 -77t25 -109.5v-228q0 -60 -25 -108.5t-65 -77t-86 -43t-92 -14.5q-47 0 -92.5 14.5t-85.5 43t-65 77t-25 108.5v228q0 80 43 137.5t102 82t122 24.5zM434 252v181q0 51 -31.5 84t-80.5 33t-79.5 -33t-30.5 -84v-181q0 -52 31 -84.5
t80 -32.5t80 32.5t31 84.5zM488 848l11 -11v-81l-11 -11h-329l-11 11v81l11 11h329z" />
    <glyph glyph-name="omacron" unicode="&#x14d;" 
d="M322 700q47 0 93 -14.5t86 -43t65 -77t25 -109.5v-228q0 -60 -25 -108.5t-65 -77t-86 -43t-92 -14.5q-47 0 -92.5 14.5t-85.5 43t-65 77t-25 108.5v228q0 80 43 137.5t102 82t122 24.5zM434 252v181q0 51 -31.5 84t-80.5 33t-79.5 -33t-30.5 -84v-181q0 -52 31 -84.5
t80 -32.5t80 32.5t31 84.5zM488 848l11 -11v-81l-11 -11h-329l-11 11v81l11 11h329z" />
    <glyph glyph-name="OE" unicode="&#x152;" horiz-adv-x="952" 
d="M881 150l11 -11v-128l-11 -11h-557q-121 0 -195 56.5t-74 168.5v235q0 112 74 168.5t195 56.5h555l11 -11v-128l-11 -11h-301v-103h198l11 -11v-122l-11 -11h-198v-138h303zM212 241q0 -47 31 -73.5t81 -26.5h97v403h-97q-50 0 -81 -26.5t-31 -73.5v-203z" />
    <glyph glyph-name="oe" unicode="&#x153;" horiz-adv-x="952" 
d="M881 150l11 -11v-128l-11 -11h-557q-121 0 -195 56.5t-74 168.5v235q0 112 74 168.5t195 56.5h555l11 -11v-128l-11 -11h-301v-103h198l11 -11v-122l-11 -11h-198v-138h303zM212 241q0 -47 31 -73.5t81 -26.5h97v403h-97q-50 0 -81 -26.5t-31 -73.5v-203z" />
    <glyph glyph-name="uni0156" unicode="&#x156;" horiz-adv-x="671" 
d="M353 685q124 0 190.5 -64.5t66.5 -162.5q0 -123 -95 -184l103 -263l-8 -11h-145l-15 10l-83 222h-135v-221l-11 -11h-135l-11 11v663l11 11h267zM453 458q0 35 -24 59t-66 24h-131v-167h131q42 0 66 24.5t24 59.5zM405 -63l11 -11v-90l-59 -63l-15 -11h-62l-11 11l62 66
h-60l-11 11v76l10 11h135z" />
    <glyph glyph-name="uni0157" unicode="&#x157;" horiz-adv-x="671" 
d="M353 685q124 0 190.5 -64.5t66.5 -162.5q0 -123 -95 -184l103 -263l-8 -11h-145l-15 10l-83 222h-135v-221l-11 -11h-135l-11 11v663l11 11h267zM453 458q0 35 -24 59t-66 24h-131v-167h131q42 0 66 24.5t24 59.5zM405 -63l11 -11v-90l-59 -63l-15 -11h-62l-11 11l62 66
h-60l-11 11v76l10 11h135z" />
    <glyph glyph-name="Sacute" unicode="&#x15a;" horiz-adv-x="594" 
d="M376 403q180 -51 180 -205q0 -98 -71 -155.5t-193 -57.5q-119 0 -191.5 64.5t-72.5 172.5l11 11h135l11 -11q0 -42 31 -69t84 -27q42 0 70.5 18t28.5 51q0 40 -30 55.5t-121 37.5q-96 23 -149 68.5t-53 137.5q0 98 72.5 152t176.5 54q101 0 174.5 -57t73.5 -164l-11 -11
h-135l-11 11q-2 82 -95 82q-42 0 -65 -17t-23 -47q0 -13 3 -22t11.5 -16.5t17 -12.5t25.5 -10.5t31 -9t39.5 -10.5zM453 872l10 -11l-107 -121l-17 -7h-114l-10 11l78 117l15 11h145z" />
    <glyph glyph-name="sacute" unicode="&#x15b;" horiz-adv-x="594" 
d="M376 403q180 -51 180 -205q0 -98 -71 -155.5t-193 -57.5q-119 0 -191.5 64.5t-72.5 172.5l11 11h135l11 -11q0 -42 31 -69t84 -27q42 0 70.5 18t28.5 51q0 40 -30 55.5t-121 37.5q-96 23 -149 68.5t-53 137.5q0 98 72.5 152t176.5 54q101 0 174.5 -57t73.5 -164l-11 -11
h-135l-11 11q-2 82 -95 82q-42 0 -65 -17t-23 -47q0 -13 3 -22t11.5 -16.5t17 -12.5t25.5 -10.5t31 -9t39.5 -10.5zM453 872l10 -11l-107 -121l-17 -7h-114l-10 11l78 117l15 11h145z" />
    <glyph glyph-name="Scaron" unicode="&#x160;" horiz-adv-x="594" 
d="M376 403q180 -51 180 -205q0 -98 -71 -155.5t-193 -57.5q-119 0 -191.5 64.5t-72.5 172.5l11 11h135l11 -11q0 -42 31 -69t84 -27q42 0 70.5 18t28.5 51q0 40 -30 55.5t-121 37.5q-96 23 -149 68.5t-53 137.5q0 98 72.5 152t176.5 54q101 0 174.5 -57t73.5 -164l-11 -11
h-135l-11 11q-2 82 -95 82q-42 0 -65 -17t-23 -47q0 -13 3 -22t11.5 -16.5t17 -12.5t25.5 -10.5t31 -9t39.5 -10.5zM199 744l-86 117l11 11h113l16 -11l40 -54l39 54l16 11h113l11 -11l-86 -117l-17 -11h-153z" />
    <glyph glyph-name="scaron" unicode="&#x161;" horiz-adv-x="594" 
d="M376 403q180 -51 180 -205q0 -98 -71 -155.5t-193 -57.5q-119 0 -191.5 64.5t-72.5 172.5l11 11h135l11 -11q0 -42 31 -69t84 -27q42 0 70.5 18t28.5 51q0 40 -30 55.5t-121 37.5q-96 23 -149 68.5t-53 137.5q0 98 72.5 152t176.5 54q101 0 174.5 -57t73.5 -164l-11 -11
h-135l-11 11q-2 82 -95 82q-42 0 -65 -17t-23 -47q0 -13 3 -22t11.5 -16.5t17 -12.5t25.5 -10.5t31 -9t39.5 -10.5zM199 744l-86 117l11 11h113l16 -11l40 -54l39 54l16 11h113l11 -11l-86 -117l-17 -11h-153z" />
    <glyph glyph-name="Tbar" unicode="&#x166;" horiz-adv-x="586" 
d="M550 685l11 -11v-128l-11 -11h-179v-120h120l11 -11v-105l-11 -11h-120v-277l-11 -11h-135l-11 11v277h-119l-11 11v105l11 11h119v120h-178l-11 11v128l11 11h514z" />
    <glyph glyph-name="tbar" unicode="&#x167;" horiz-adv-x="586" 
d="M550 685l11 -11v-128l-11 -11h-179v-120h120l11 -11v-105l-11 -11h-120v-277l-11 -11h-135l-11 11v277h-119l-11 11v105l11 11h119v120h-178l-11 11v128l11 11h514z" />
    <glyph glyph-name="Utilde" unicode="&#x168;" horiz-adv-x="678" 
d="M597 685l11 -11v-445q0 -61 -25 -109.5t-65 -77t-86 -43t-93 -14.5t-93 14.5t-86 43t-65 77t-25 109.5v445l11 11h135l11 -11v-422q0 -52 31 -84.5t81 -32.5t81 32.5t31 84.5v422l11 11h135zM504 878l11 -11v-81l-11 -11h-73q-9 0 -23 -4l-103 -33q-13 -5 -25 -5h-105
l-11 11v81l11 11h73q9 0 23 4l103 33q13 5 25 5h105z" />
    <glyph glyph-name="utilde" unicode="&#x169;" horiz-adv-x="678" 
d="M597 685l11 -11v-445q0 -61 -25 -109.5t-65 -77t-86 -43t-93 -14.5t-93 14.5t-86 43t-65 77t-25 109.5v445l11 11h135l11 -11v-422q0 -52 31 -84.5t81 -32.5t81 32.5t31 84.5v422l11 11h135zM504 878l11 -11v-81l-11 -11h-73q-9 0 -23 -4l-103 -33q-13 -5 -25 -5h-105
l-11 11v81l11 11h73q9 0 23 4l103 33q13 5 25 5h105z" />
    <glyph glyph-name="Umacron" unicode="&#x16a;" horiz-adv-x="678" 
d="M597 685l11 -11v-445q0 -61 -25 -109.5t-65 -77t-86 -43t-93 -14.5t-93 14.5t-86 43t-65 77t-25 109.5v445l11 11h135l11 -11v-422q0 -52 31 -84.5t81 -32.5t81 32.5t31 84.5v422l11 11h135zM504 848l11 -11v-81l-11 -11h-329l-11 11v81l11 11h329z" />
    <glyph glyph-name="umacron" unicode="&#x16b;" horiz-adv-x="678" 
d="M597 685l11 -11v-445q0 -61 -25 -109.5t-65 -77t-86 -43t-93 -14.5t-93 14.5t-86 43t-65 77t-25 109.5v445l11 11h135l11 -11v-422q0 -52 31 -84.5t81 -32.5t81 32.5t31 84.5v422l11 11h135zM504 848l11 -11v-81l-11 -11h-329l-11 11v81l11 11h329z" />
    <glyph glyph-name="Uogonek" unicode="&#x172;" horiz-adv-x="678" 
d="M459 -63h7l6 -8v-89l-8 -8h-7q-134 0 -134 98q0 30 17 55q-46 0 -92 15t-86.5 43.5t-66 77t-25.5 108.5v445l11 11h135l11 -11v-422q0 -52 31 -84.5t81 -32.5t81 32.5t31 84.5v422l11 11h135l11 -11v-445q0 -142 -145 -225q-33 -18 -33 -42q0 -10 7.5 -17.5t21.5 -7.5z
" />
    <glyph glyph-name="uogonek" unicode="&#x173;" horiz-adv-x="678" 
d="M459 -63h7l6 -8v-89l-8 -8h-7q-134 0 -134 98q0 30 17 55q-46 0 -92 15t-86.5 43.5t-66 77t-25.5 108.5v445l11 11h135l11 -11v-422q0 -52 31 -84.5t81 -32.5t81 32.5t31 84.5v422l11 11h135l11 -11v-445q0 -142 -145 -225q-33 -18 -33 -42q0 -10 7.5 -17.5t21.5 -7.5z
" />
    <glyph glyph-name="Ydieresis" unicode="&#x178;" horiz-adv-x="640" 
d="M624 685l6 -10l-232 -436v-228l-10 -11h-136l-11 11v228l-231 436l6 10h153l16 -8l137 -277l139 277l17 8h146zM276 872l11 -11v-117l-11 -11h-135l-11 11v117l11 11h135zM503 872l11 -11v-117l-11 -11h-135l-11 11v117l11 11h135z" />
    <glyph glyph-name="Zacute" unicode="&#x179;" horiz-adv-x="616" 
d="M236 150h329l11 -10v-129l-11 -11h-514l-11 11v129l6 15l324 380h-312l-11 11v129l11 10h502l11 -10v-129l-6 -14zM453 872l10 -11l-107 -121l-17 -7h-114l-10 11l78 117l15 11h145z" />
    <glyph glyph-name="zacute" unicode="&#x17a;" horiz-adv-x="616" 
d="M236 150h329l11 -10v-129l-11 -11h-514l-11 11v129l6 15l324 380h-312l-11 11v129l11 10h502l11 -10v-129l-6 -14zM453 872l10 -11l-107 -121l-17 -7h-114l-10 11l78 117l15 11h145z" />
    <glyph glyph-name="Zdotaccent" unicode="&#x17b;" horiz-adv-x="616" 
d="M236 150h329l11 -10v-129l-11 -11h-514l-11 11v129l6 15l324 380h-312l-11 11v129l11 10h502l11 -10v-129l-6 -14zM380 872l11 -11v-117l-11 -11h-135l-11 11v117l11 11h135z" />
    <glyph glyph-name="zdotaccent" unicode="&#x17c;" horiz-adv-x="616" 
d="M236 150h329l11 -10v-129l-11 -11h-514l-11 11v129l6 15l324 380h-312l-11 11v129l11 10h502l11 -10v-129l-6 -14zM380 872l11 -11v-117l-11 -11h-135l-11 11v117l11 11h135z" />
    <glyph glyph-name="Zcaron" unicode="&#x17d;" horiz-adv-x="616" 
d="M236 150h329l11 -10v-129l-11 -11h-514l-11 11v129l6 15l324 380h-312l-11 11v129l11 10h502l11 -10v-129l-6 -14zM215 744l-86 117l11 11h113l16 -11l40 -54l39 54l16 11h113l11 -11l-86 -117l-17 -11h-153z" />
    <glyph glyph-name="zcaron" unicode="&#x17e;" horiz-adv-x="616" 
d="M236 150h329l11 -10v-129l-11 -11h-514l-11 11v129l6 15l324 380h-312l-11 11v129l11 10h502l11 -10v-129l-6 -14zM215 744l-86 117l11 11h113l16 -11l40 -54l39 54l16 11h113l11 -11l-86 -117l-17 -11h-153z" />
    <glyph glyph-name="circumflex" unicode="&#x2c6;" horiz-adv-x="439" 
d="M313 861l86 -117l-11 -11h-113l-16 11l-40 54l-39 -54l-16 -11h-113l-11 11l86 117l17 11h153z" />
    <glyph glyph-name="caron" unicode="&#x2c7;" horiz-adv-x="439" 
d="M126 744l-86 117l11 11h113l16 -11l40 -54l39 54l16 11h113l11 -11l-86 -117l-17 -11h-153z" />
    <glyph glyph-name="dotaccent" unicode="&#x2d9;" horiz-adv-x="675" 
d="M405 872l11 -11v-117l-11 -11h-135l-11 11v117l11 11h135z" />
    <glyph glyph-name="ogonek" unicode="&#x2db;" horiz-adv-x="308" 
d="M216 -63h7l6 -8v-89l-8 -8h-7q-134 0 -134 100q0 46 32.5 78.5t66.5 37.5l39 -48q-31 -15 -31 -38q0 -10 7.5 -17.5t21.5 -7.5z" />
    <glyph glyph-name="tilde" unicode="&#x2dc;" horiz-adv-x="429" 
d="M379 878l11 -11v-81l-11 -11h-73q-9 0 -23 -4l-103 -33q-13 -5 -25 -5h-105l-11 11v81l11 11h73q9 0 23 4l103 33q13 5 25 5h105z" />
    <glyph glyph-name="hungarumlaut" unicode="&#x2dd;" horiz-adv-x="503" 
d="M475 861l-107 -121l-17 -7h-94l-10 11l78 117l15 11h125zM283 861l-107 -121l-17 -7h-94l-10 11l78 117l15 11h125z" />
    <glyph glyph-name="uni037E" unicode="&#x37e;" horiz-adv-x="307" 
d="M226 445l11 -11v-135l-10 -11h-146l-11 11v135l10 11h146zM226 157l11 -11v-149l-70 -122l-11 -11h-73l-11 11l69 125h-60l-11 11v135l10 11h146z" />
    <glyph glyph-name="uni0401" unicode="&#x401;" horiz-adv-x="660" 
d="M589 150l11 -11v-128l-11 -11h-503l-11 11v663l11 11h501l11 -11v-128l-11 -11h-355v-103h251l11 -11v-122l-11 -11h-251v-138h357zM289 872l11 -11v-117l-11 -11h-135l-11 11v117l11 11h135zM516 872l11 -11v-117l-11 -11h-135l-11 11v117l11 11h135z" />
    <glyph glyph-name="uni0402" unicode="&#x402;" horiz-adv-x="741" 
d="M717 225q0 -109 -61.5 -167t-163.5 -58h-39l-11 10v125l11 11h34q33 0 53 19.5t20 55.5q0 92 -113 92q-49 0 -94 -9v-293l-11 -11h-135l-11 11v529h-161l-10 11v123l10 11h515l10 -11v-123l-10 -11h-197v-92q49 6 109 6q120 0 187.5 -61.5t67.5 -167.5z" />
    <glyph glyph-name="uni0403" unicode="&#x403;" horiz-adv-x="585" 
d="M550 685l10 -11v-128l-10 -11h-318v-524l-11 -11h-135l-11 11v663l11 11h464zM465 872l10 -11l-107 -121l-17 -7h-114l-10 11l78 117l15 11h145z" />
    <glyph glyph-name="uni0404" unicode="&#x404;" horiz-adv-x="636" 
d="M580 273l11 -11v-33q0 -80 -43 -137.5t-102 -82t-122 -24.5q-47 0 -93 14.5t-86 43t-65 77t-25 109.5v227q0 61 25 109.5t65 77t85.5 43t92.5 14.5t92.5 -14.5t85.5 -43t65 -77t25 -109.5v-23l-11 -11h-135l-11 11q0 52 -31 84.5t-80 32.5t-80 -32.5t-31 -84.5v-14h152
l11 -11v-122l-11 -11h-152v-23q0 -52 31 -84.5t81 -32.5q49 0 79.5 32.5t30.5 84.5v10l11 11h135z" />
    <glyph glyph-name="uni0405" unicode="&#x405;" horiz-adv-x="594" 
d="M376 403q180 -51 180 -205q0 -98 -71 -155.5t-193 -57.5q-119 0 -191.5 64.5t-72.5 172.5l11 11h135l11 -11q0 -42 31 -69t84 -27q42 0 70.5 18t28.5 51q0 40 -30 55.5t-121 37.5q-96 23 -149 68.5t-53 137.5q0 98 72.5 152t176.5 54q101 0 174.5 -57t73.5 -164l-11 -11
h-135l-11 11q-2 82 -95 82q-42 0 -65 -17t-23 -47q0 -13 3 -22t11.5 -16.5t17 -12.5t25.5 -10.5t31 -9t39.5 -10.5z" />
    <glyph glyph-name="uni0406" unicode="&#x406;" horiz-adv-x="520" 
d="M338 535v-385h111l11 -11v-128l-11 -11h-378l-11 11v128l11 11h110v385h-110l-11 11v128l11 11h378l11 -11v-128l-11 -11h-111z" />
    <glyph glyph-name="uni0407" unicode="&#x407;" horiz-adv-x="520" 
d="M338 535v-385h111l11 -11v-128l-11 -11h-378l-11 11v128l11 11h110v385h-110l-11 11v128l11 11h378l11 -11v-128l-11 -11h-111zM214 872l11 -11v-117l-11 -11h-135l-11 11v117l11 11h135zM441 872l11 -11v-117l-11 -11h-135l-11 11v117l11 11h135z" />
    <glyph glyph-name="uni0408" unicode="&#x408;" horiz-adv-x="596" 
d="M515 685l11 -11v-458q0 -58 -23.5 -104t-61.5 -72.5t-81.5 -40.5t-86.5 -14q-44 0 -87.5 14t-82 41t-62 72.5t-23.5 103.5v36l11 11h135l11 -11v-15q0 -45 27 -73.5t70 -28.5t70 28.5t27 73.5v298h-152l-11 11v128l11 11h298z" />
    <glyph glyph-name="uni0409" unicode="&#x409;" horiz-adv-x="1019" 
d="M301 535v-187q0 -78 -9.5 -134.5t-34.5 -108t-75.5 -78.5t-126.5 -27h-19l-11 10v129l11 11h12q60 0 81 39.5t21 159.5v325l11 11h452l10 -11v-221h115q123 0 190 -64.5t67 -162.5t-67 -162t-190 -64h-261l-11 11v524h-165zM749 311h-126v-167h126q41 0 65 24t24 59
t-24 59.5t-65 24.5z" />
    <glyph glyph-name="uni040A" unicode="&#x40a;" horiz-adv-x="1010" 
d="M729 0h-261l-11 11v266h-225v-266l-11 -11h-135l-11 11v663l11 11h135l11 -11v-247h225v247l11 11h136l10 -11v-221h115q123 0 190 -64.5t67 -162.5t-67 -162t-190 -64zM740 311h-126v-167h126q41 0 65 24t24 59t-24 59.5t-65 24.5z" />
    <glyph glyph-name="uni040B" unicode="&#x40b;" horiz-adv-x="779" 
d="M550 685l10 -11v-123l-10 -11h-197v-106q54 9 105 9q54 0 99 -10.5t82.5 -34t58.5 -65.5t21 -100v-222l-11 -11h-135l-11 11v195q0 87 -114 87q-58 0 -95 -10v-272l-11 -11h-135l-11 11v529h-161l-10 11v123l10 11h515z" />
    <glyph glyph-name="uni040C" unicode="&#x40c;" horiz-adv-x="644" 
d="M612 11l-8 -11h-153l-14 9l-121 268h-84v-266l-11 -11h-135l-11 11v663l11 11h135l11 -11v-247h88l111 248l16 10h146l7 -11l-143 -321zM477 872l10 -11l-107 -121l-17 -7h-114l-10 11l78 117l15 11h145z" />
    <glyph glyph-name="uni040E" unicode="&#x40e;" horiz-adv-x="630" 
d="M611 674l-280 -663l-10 -11h-145l-11 11l78 181l-228 482l11 11h152l10 -11l134 -296l125 296l10 11h143zM480 875l11 -12v-11q-2 -69 -50.5 -103.5t-118.5 -34.5t-118.5 34.5t-50.5 103.5v11l11 12h100l11 -12v-10q0 -17 12 -27.5t35 -10.5q22 0 34.5 10.5t12.5 27.5v10
l11 12h100z" />
    <glyph glyph-name="uni040F" unicode="&#x40f;" horiz-adv-x="678" 
d="M603 11l-10 -11h-179v-111l-11 -11h-128l-11 11v111h-178l-11 11v663l11 11h135l11 -11v-524h214v524l11 11h136l10 -11v-663z" />
    <glyph glyph-name="uni0410" unicode="&#x410;" horiz-adv-x="642" 
d="M429 674l198 -663l-11 -11h-142l-11 11l-36 129h-216l-36 -129l-11 -11h-138l-11 11l198 663l11 11h194zM321 530l-70 -249h138z" />
    <glyph glyph-name="uni0411" unicode="&#x411;" horiz-adv-x="628" 
d="M541 685l11 -11v-128l-11 -11h-309v-82h115q123 0 190 -64.5t67 -162.5t-67 -162t-190 -64h-261l-11 11v663l11 11h455zM358 311h-126v-167h126q41 0 65 24t24 59t-24 59.5t-65 24.5z" />
    <glyph glyph-name="uni0412" unicode="&#x412;" horiz-adv-x="662" 
d="M520 366q92 -53 92 -160q0 -95 -64.5 -150.5t-176.5 -55.5h-285l-11 11v663l11 11h274q97 0 159.5 -50.5t62.5 -131.5q0 -51 -15.5 -81.5t-46.5 -55.5zM232 541v-114h135q28 0 44.5 16.5t16.5 40.5t-16.5 40.5t-44.5 16.5h-135zM372 144q38 0 60 22t22 54t-22 54t-60 22
h-140v-152h140z" />
    <glyph glyph-name="uni0413" unicode="&#x413;" horiz-adv-x="585" 
d="M550 685l10 -11v-128l-10 -11h-318v-524l-11 -11h-135l-11 11v663l11 11h464z" />
    <glyph glyph-name="uni0414" unicode="&#x414;" horiz-adv-x="726" 
d="M685 150l11 -11v-250l-11 -11h-128l-11 11v111h-381v-111l-11 -11h-128l-11 11v250l11 11h62q36 69 49 138t13 197v189l11 11h433l11 -11v-524h80zM448 150v385h-146v-108q0 -170 -47 -277h193z" />
    <glyph glyph-name="uni0415" unicode="&#x415;" horiz-adv-x="660" 
d="M589 150l11 -11v-128l-11 -11h-503l-11 11v663l11 11h501l11 -11v-128l-11 -11h-355v-103h251l11 -11v-122l-11 -11h-251v-138h357z" />
    <glyph glyph-name="uni0416" unicode="&#x416;" horiz-adv-x="957" 
d="M40 0l-8 11l152 335l-140 328l7 11h142l16 -10l109 -255h82v254l11 11h135l11 -11v-254h82l109 255l16 10h142l7 -11l-140 -328l152 -335l-8 -11h-150l-14 9l-119 261h-77v-259l-11 -11h-135l-11 11v259h-77l-119 -261l-14 -9h-150z" />
    <glyph glyph-name="uni0417" unicode="&#x417;" horiz-adv-x="630" 
d="M487 350q39 -19 63.5 -60t24.5 -87q0 -104 -73.5 -161t-184.5 -57q-118 0 -194 62.5t-78 178.5l11 11h132l11 -11q0 -49 33 -74t85 -25q43 0 73 19.5t30 60.5q0 38 -28 57t-73 19h-82l-11 11v110l11 11h85q38 0 61 18t23 53q0 31 -22.5 51t-66.5 20q-47 0 -74.5 -25
t-27.5 -70l-11 -11h-132l-11 11q0 108 70 173t185 65q106 0 175.5 -57.5t69.5 -153.5q0 -88 -74 -139z" />
    <glyph glyph-name="uni0418" unicode="&#x418;" horiz-adv-x="694" 
d="M75 674l11 11h135l11 -11v-406l203 409l15 8h158l11 -11v-663l-11 -11h-135l-11 11v406l-203 -408l-15 -9h-158l-11 11v663z" />
    <glyph glyph-name="uni0419" unicode="&#x419;" horiz-adv-x="694" 
d="M75 674l11 11h135l11 -11v-406l203 409l15 8h158l11 -11v-663l-11 -11h-135l-11 11v406l-203 -408l-15 -9h-158l-11 11v663zM505 875l11 -12v-11q-2 -69 -50.5 -103.5t-118.5 -34.5t-118.5 34.5t-50.5 103.5v11l11 12h100l11 -12v-10q0 -17 12 -27.5t35 -10.5
q22 0 34.5 10.5t12.5 27.5v10l11 12h100z" />
    <glyph glyph-name="uni041A" unicode="&#x41a;" horiz-adv-x="644" 
d="M612 11l-8 -11h-153l-14 9l-121 268h-84v-266l-11 -11h-135l-11 11v663l11 11h135l11 -11v-247h88l111 248l16 10h146l7 -11l-143 -321z" />
    <glyph glyph-name="uni041B" unicode="&#x41b;" horiz-adv-x="698" 
d="M613 685l10 -11v-663l-10 -11h-136l-11 11v524h-165v-187q0 -78 -9.5 -134.5t-34.5 -108t-75.5 -78.5t-126.5 -27h-19l-11 10v129l11 11h12q60 0 81 39.5t21 159.5v325l11 11h452z" />
    <glyph glyph-name="uni041C" unicode="&#x41c;" horiz-adv-x="750" 
d="M664 685l11 -11v-663l-11 -11h-134l-10 11v441l-81 -153l-11 -11h-109l-11 11l-78 151v-439l-11 -11h-133l-11 11v663l11 11h161l14 -9l116 -230l114 230l14 9h159z" />
    <glyph glyph-name="uni041D" unicode="&#x41d;" horiz-adv-x="689" 
d="M604 685l10 -11v-663l-10 -11h-136l-11 11v266h-225v-266l-11 -11h-135l-11 11v663l11 11h135l11 -11v-247h225v247l11 11h136z" />
    <glyph glyph-name="uni041E" unicode="&#x41e;" 
d="M322 700q47 0 93 -14.5t86 -43t65 -77t25 -109.5v-228q0 -60 -25 -108.5t-65 -77t-86 -43t-92 -14.5q-47 0 -92.5 14.5t-85.5 43t-65 77t-25 108.5v228q0 80 43 137.5t102 82t122 24.5zM434 252v181q0 51 -31.5 84t-80.5 33t-79.5 -33t-30.5 -84v-181q0 -52 31 -84.5
t80 -32.5t80 32.5t31 84.5z" />
    <glyph glyph-name="uni041F" unicode="&#x41f;" horiz-adv-x="684" 
d="M599 685l10 -11v-663l-10 -11h-136l-11 11v524h-220v-524l-11 -11h-135l-11 11v663l11 11h513z" />
    <glyph glyph-name="uni0420" unicode="&#x420;" horiz-adv-x="628" 
d="M347 685q123 0 190 -64t67 -162t-67 -162.5t-190 -64.5h-115v-221l-11 -11h-135l-11 11v663l11 11h261zM358 374q41 0 65 24.5t24 59.5t-24 59t-65 24h-126v-167h126z" />
    <glyph glyph-name="uni0421" unicode="&#x421;" horiz-adv-x="636" 
d="M580 273l11 -11v-33q0 -80 -43 -137.5t-102 -82t-122 -24.5q-47 0 -93 14.5t-86 43t-65 77t-25 109.5v227q0 61 25 109.5t65 77t85.5 43t92.5 14.5t92.5 -14.5t85.5 -43t65 -77t25 -109.5v-23l-11 -11h-135l-11 11q0 52 -31 84.5t-80 32.5t-80 -32.5t-31 -84.5v-181
q0 -52 31 -84.5t81 -32.5q49 0 79.5 32.5t30.5 84.5v10l11 11h135z" />
    <glyph glyph-name="uni0422" unicode="&#x422;" horiz-adv-x="586" 
d="M550 685l11 -11v-128l-11 -11h-179v-524l-11 -11h-135l-11 11v524h-178l-11 11v128l11 11h514z" />
    <glyph glyph-name="uni0423" unicode="&#x423;" horiz-adv-x="630" 
d="M610 674l-280 -663l-10 -11h-143l-11 11l78 181l-229 482l11 11h152l10 -11l136 -298l124 298l10 11h141z" />
    <glyph glyph-name="uni0424" unicode="&#x424;" horiz-adv-x="829" 
d="M44 313v73q0 98 67 162t190 64h35v72l11 11h135l11 -11v-72h35q123 0 190 -64t67 -162v-73q0 -98 -67 -162t-190 -64h-35v-81l-11 -11h-135l-11 11v81h-35q-123 0 -190 64t-67 162zM628 314v71q0 35 -24 59t-65 24h-46v-237h46q41 0 65 24t24 59zM201 385v-71
q0 -35 24 -59t65 -24h46v237h-46q-41 0 -65 -24t-24 -59z" />
    <glyph glyph-name="uni0425" unicode="&#x425;" horiz-adv-x="625" 
d="M410 353l190 -342l-7 -11h-154l-15 9l-112 206l-117 -206l-15 -9h-149l-6 11l193 341l-188 322l6 11h153l15 -9l113 -202l111 202l15 9h147l7 -11z" />
    <glyph glyph-name="uni0426" unicode="&#x426;" horiz-adv-x="724" 
d="M694 139v-250l-11 -11h-128l-11 11v111h-458l-11 11v663l11 11h135l11 -11v-524h214v524l11 11h136l10 -11v-524h80z" />
    <glyph glyph-name="uni0427" unicode="&#x427;" horiz-adv-x="651" 
d="M217 674v-208q0 -46 27.5 -66.5t83.5 -20.5q54 0 91 10v285l11 11h135l11 -11v-663l-11 -11h-135l-11 11v227q-54 -9 -101 -9q-54 0 -98.5 10.5t-81.5 34t-57.5 65.5t-20.5 100v235l11 11h135z" />
    <glyph glyph-name="uni0428" unicode="&#x428;" horiz-adv-x="979" 
d="M904 11l-10 -11h-808l-11 11v663l11 11h135l11 -11v-524h179v524l11 11h135l11 -11v-524h179v524l11 11h136l10 -11v-663z" />
    <glyph glyph-name="uni0429" unicode="&#x429;" horiz-adv-x="1025" 
d="M995 139v-250l-11 -11h-128l-11 11v111h-759l-11 11v663l11 11h135l11 -11v-524h179v524l11 11h135l11 -11v-524h179v524l11 11h136l10 -11v-524h80z" />
    <glyph glyph-name="uni042A" unicode="&#x42a;" horiz-adv-x="749" 
d="M468 0h-261l-11 11v524h-160l-11 11v128l11 11h306l11 -11v-221h115q123 0 190 -64.5t67 -162.5t-67 -162t-190 -64zM479 311h-126v-167h126q41 0 65 24t24 59t-24 59.5t-65 24.5z" />
    <glyph glyph-name="uni042B" unicode="&#x42b;" horiz-adv-x="888" 
d="M327 0h-241l-11 11v663l11 11h135l11 -11v-221h95q123 0 190 -64.5t67 -162.5t-67 -162t-190 -64zM338 311h-106v-167h106q41 0 65 24t24 59t-24 59.5t-65 24.5zM813 674v-663l-11 -11h-135l-11 11v663l11 11h135z" />
    <glyph glyph-name="uni042C" unicode="&#x42c;" horiz-adv-x="628" 
d="M347 0h-261l-11 11v663l11 11h135l11 -11v-221h115q123 0 190 -64.5t67 -162.5t-67 -162t-190 -64zM358 311h-126v-167h126q41 0 65 24t24 59t-24 59.5t-65 24.5z" />
    <glyph glyph-name="uni042D" unicode="&#x42d;" horiz-adv-x="636" 
d="M45 262l11 11h135l11 -11v-10q0 -52 30.5 -84.5t79.5 -32.5q50 0 81 32.5t31 84.5v23h-152l-11 11v122l11 11h152v14q0 52 -31 84.5t-80 32.5t-80 -32.5t-31 -84.5l-11 -11h-135l-11 11v23q0 61 25 109.5t65 77t85.5 43t92.5 14.5t92.5 -14.5t85.5 -43t65 -77t25 -109.5
v-227q0 -61 -25 -109.5t-65 -77t-86 -43t-93 -14.5q-63 0 -122 24.5t-102 82t-43 137.5v33z" />
    <glyph glyph-name="uni042E" unicode="&#x42e;" horiz-adv-x="927" 
d="M603 700q47 0 93 -14.5t86 -43t65 -77t25 -109.5v-228q0 -60 -25 -108.5t-65 -77t-86 -43t-92 -14.5q-47 0 -92.5 14.5t-85.5 43t-65 77t-25 108.5v49h-104v-266l-11 -11h-135l-11 11v663l11 11h135l11 -11v-247h104v29q0 80 43 137.5t102 82t122 24.5zM715 252v181
q0 51 -31.5 84t-80.5 33t-79.5 -33t-30.5 -84v-181q0 -52 31 -84.5t80 -32.5t80 32.5t31 84.5z" />
    <glyph glyph-name="uni042F" unicode="&#x42f;" horiz-adv-x="671" 
d="M318 685h267l11 -11v-663l-11 -11h-135l-11 11v221h-135l-83 -222l-15 -10h-145l-8 11l103 263q-95 61 -95 184q0 98 66.5 162.5t190.5 64.5zM218 458q0 -35 24 -59.5t66 -24.5h131v167h-131q-42 0 -66 -24t-24 -59z" />
    <glyph glyph-name="uni0430" unicode="&#x430;" horiz-adv-x="642" 
d="M429 674l198 -663l-11 -11h-142l-11 11l-36 129h-216l-36 -129l-11 -11h-138l-11 11l198 663l11 11h194zM321 530l-70 -249h138z" />
    <glyph glyph-name="uni0431" unicode="&#x431;" horiz-adv-x="628" 
d="M541 685l11 -11v-128l-11 -11h-309v-82h115q123 0 190 -64.5t67 -162.5t-67 -162t-190 -64h-261l-11 11v663l11 11h455zM358 311h-126v-167h126q41 0 65 24t24 59t-24 59.5t-65 24.5z" />
    <glyph glyph-name="uni0432" unicode="&#x432;" horiz-adv-x="662" 
d="M520 366q92 -53 92 -160q0 -95 -64.5 -150.5t-176.5 -55.5h-285l-11 11v663l11 11h274q97 0 159.5 -50.5t62.5 -131.5q0 -51 -15.5 -81.5t-46.5 -55.5zM232 541v-114h135q28 0 44.5 16.5t16.5 40.5t-16.5 40.5t-44.5 16.5h-135zM372 144q38 0 60 22t22 54t-22 54t-60 22
h-140v-152h140z" />
    <glyph glyph-name="uni0433" unicode="&#x433;" horiz-adv-x="585" 
d="M550 685l10 -11v-128l-10 -11h-318v-524l-11 -11h-135l-11 11v663l11 11h464z" />
    <glyph glyph-name="uni0434" unicode="&#x434;" horiz-adv-x="726" 
d="M685 150l11 -11v-250l-11 -11h-128l-11 11v111h-381v-111l-11 -11h-128l-11 11v250l11 11h62q36 69 49 138t13 197v189l11 11h433l11 -11v-524h80zM448 150v385h-146v-108q0 -170 -47 -277h193z" />
    <glyph glyph-name="uni0435" unicode="&#x435;" horiz-adv-x="660" 
d="M589 150l11 -11v-128l-11 -11h-503l-11 11v663l11 11h501l11 -11v-128l-11 -11h-355v-103h251l11 -11v-122l-11 -11h-251v-138h357z" />
    <glyph glyph-name="uni0436" unicode="&#x436;" horiz-adv-x="957" 
d="M40 0l-8 11l152 335l-140 328l7 11h142l16 -10l109 -255h82v254l11 11h135l11 -11v-254h82l109 255l16 10h142l7 -11l-140 -328l152 -335l-8 -11h-150l-14 9l-119 261h-77v-259l-11 -11h-135l-11 11v259h-77l-119 -261l-14 -9h-150z" />
    <glyph glyph-name="uni0437" unicode="&#x437;" horiz-adv-x="630" 
d="M487 350q39 -19 63.5 -60t24.5 -87q0 -104 -73.5 -161t-184.5 -57q-118 0 -194 62.5t-78 178.5l11 11h132l11 -11q0 -49 33 -74t85 -25q43 0 73 19.5t30 60.5q0 38 -28 57t-73 19h-82l-11 11v110l11 11h85q38 0 61 18t23 53q0 31 -22.5 51t-66.5 20q-47 0 -74.5 -25
t-27.5 -70l-11 -11h-132l-11 11q0 108 70 173t185 65q106 0 175.5 -57.5t69.5 -153.5q0 -88 -74 -139z" />
    <glyph glyph-name="uni0438" unicode="&#x438;" horiz-adv-x="694" 
d="M75 674l11 11h135l11 -11v-406l203 409l15 8h158l11 -11v-663l-11 -11h-135l-11 11v406l-203 -408l-15 -9h-158l-11 11v663z" />
    <glyph glyph-name="uni0439" unicode="&#x439;" horiz-adv-x="694" 
d="M75 674l11 11h135l11 -11v-406l203 409l15 8h158l11 -11v-663l-11 -11h-135l-11 11v406l-203 -408l-15 -9h-158l-11 11v663zM505 875l11 -12v-11q-2 -69 -50.5 -103.5t-118.5 -34.5t-118.5 34.5t-50.5 103.5v11l11 12h100l11 -12v-10q0 -17 12 -27.5t35 -10.5
q22 0 34.5 10.5t12.5 27.5v10l11 12h100z" />
    <glyph glyph-name="uni043A" unicode="&#x43a;" horiz-adv-x="644" 
d="M612 11l-8 -11h-153l-14 9l-121 268h-84v-266l-11 -11h-135l-11 11v663l11 11h135l11 -11v-247h88l111 248l16 10h146l7 -11l-143 -321z" />
    <glyph glyph-name="uni043B" unicode="&#x43b;" horiz-adv-x="698" 
d="M613 685l10 -11v-663l-10 -11h-136l-11 11v524h-165v-187q0 -78 -9.5 -134.5t-34.5 -108t-75.5 -78.5t-126.5 -27h-19l-11 10v129l11 11h12q60 0 81 39.5t21 159.5v325l11 11h452z" />
    <glyph glyph-name="uni043C" unicode="&#x43c;" horiz-adv-x="750" 
d="M664 685l11 -11v-663l-11 -11h-134l-10 11v441l-81 -153l-11 -11h-109l-11 11l-78 151v-439l-11 -11h-133l-11 11v663l11 11h161l14 -9l116 -230l114 230l14 9h159z" />
    <glyph glyph-name="uni043D" unicode="&#x43d;" horiz-adv-x="689" 
d="M604 685l10 -11v-663l-10 -11h-136l-11 11v266h-225v-266l-11 -11h-135l-11 11v663l11 11h135l11 -11v-247h225v247l11 11h136z" />
    <glyph glyph-name="uni043E" unicode="&#x43e;" 
d="M322 700q47 0 93 -14.5t86 -43t65 -77t25 -109.5v-228q0 -60 -25 -108.5t-65 -77t-86 -43t-92 -14.5q-47 0 -92.5 14.5t-85.5 43t-65 77t-25 108.5v228q0 80 43 137.5t102 82t122 24.5zM434 252v181q0 51 -31.5 84t-80.5 33t-79.5 -33t-30.5 -84v-181q0 -52 31 -84.5
t80 -32.5t80 32.5t31 84.5z" />
    <glyph glyph-name="uni043F" unicode="&#x43f;" horiz-adv-x="684" 
d="M599 685l10 -11v-663l-10 -11h-136l-11 11v524h-220v-524l-11 -11h-135l-11 11v663l11 11h513z" />
    <glyph glyph-name="uni0440" unicode="&#x440;" horiz-adv-x="628" 
d="M347 685q123 0 190 -64t67 -162t-67 -162.5t-190 -64.5h-115v-221l-11 -11h-135l-11 11v663l11 11h261zM358 374q41 0 65 24.5t24 59.5t-24 59t-65 24h-126v-167h126z" />
    <glyph glyph-name="uni0441" unicode="&#x441;" horiz-adv-x="636" 
d="M580 273l11 -11v-33q0 -80 -43 -137.5t-102 -82t-122 -24.5q-47 0 -93 14.5t-86 43t-65 77t-25 109.5v227q0 61 25 109.5t65 77t85.5 43t92.5 14.5t92.5 -14.5t85.5 -43t65 -77t25 -109.5v-23l-11 -11h-135l-11 11q0 52 -31 84.5t-80 32.5t-80 -32.5t-31 -84.5v-181
q0 -52 31 -84.5t81 -32.5q49 0 79.5 32.5t30.5 84.5v10l11 11h135z" />
    <glyph glyph-name="uni0442" unicode="&#x442;" horiz-adv-x="586" 
d="M550 685l11 -11v-128l-11 -11h-179v-524l-11 -11h-135l-11 11v524h-178l-11 11v128l11 11h514z" />
    <glyph glyph-name="uni0443" unicode="&#x443;" horiz-adv-x="630" 
d="M610 674l-280 -663l-10 -11h-143l-11 11l78 181l-229 482l11 11h152l10 -11l136 -298l124 298l10 11h141z" />
    <glyph glyph-name="uni0444" unicode="&#x444;" horiz-adv-x="829" 
d="M44 313v73q0 98 67 162t190 64h35v72l11 11h135l11 -11v-72h35q123 0 190 -64t67 -162v-73q0 -98 -67 -162t-190 -64h-35v-81l-11 -11h-135l-11 11v81h-35q-123 0 -190 64t-67 162zM628 314v71q0 35 -24 59t-65 24h-46v-237h46q41 0 65 24t24 59zM201 385v-71
q0 -35 24 -59t65 -24h46v237h-46q-41 0 -65 -24t-24 -59z" />
    <glyph glyph-name="uni0445" unicode="&#x445;" horiz-adv-x="625" 
d="M410 353l190 -342l-7 -11h-154l-15 9l-112 206l-117 -206l-15 -9h-149l-6 11l193 341l-188 322l6 11h153l15 -9l113 -202l111 202l15 9h147l7 -11z" />
    <glyph glyph-name="uni0446" unicode="&#x446;" horiz-adv-x="724" 
d="M694 139v-250l-11 -11h-128l-11 11v111h-458l-11 11v663l11 11h135l11 -11v-524h214v524l11 11h136l10 -11v-524h80z" />
    <glyph glyph-name="uni0447" unicode="&#x447;" horiz-adv-x="651" 
d="M217 674v-208q0 -46 27.5 -66.5t83.5 -20.5q54 0 91 10v285l11 11h135l11 -11v-663l-11 -11h-135l-11 11v227q-54 -9 -101 -9q-54 0 -98.5 10.5t-81.5 34t-57.5 65.5t-20.5 100v235l11 11h135z" />
    <glyph glyph-name="uni0448" unicode="&#x448;" horiz-adv-x="979" 
d="M904 11l-10 -11h-808l-11 11v663l11 11h135l11 -11v-524h179v524l11 11h135l11 -11v-524h179v524l11 11h136l10 -11v-663z" />
    <glyph glyph-name="uni0449" unicode="&#x449;" horiz-adv-x="1025" 
d="M995 139v-250l-11 -11h-128l-11 11v111h-759l-11 11v663l11 11h135l11 -11v-524h179v524l11 11h135l11 -11v-524h179v524l11 11h136l10 -11v-524h80z" />
    <glyph glyph-name="uni044A" unicode="&#x44a;" horiz-adv-x="749" 
d="M468 0h-261l-11 11v524h-160l-11 11v128l11 11h306l11 -11v-221h115q123 0 190 -64.5t67 -162.5t-67 -162t-190 -64zM479 311h-126v-167h126q41 0 65 24t24 59t-24 59.5t-65 24.5z" />
    <glyph glyph-name="uni044B" unicode="&#x44b;" horiz-adv-x="888" 
d="M327 0h-241l-11 11v663l11 11h135l11 -11v-221h95q123 0 190 -64.5t67 -162.5t-67 -162t-190 -64zM338 311h-106v-167h106q41 0 65 24t24 59t-24 59.5t-65 24.5zM813 674v-663l-11 -11h-135l-11 11v663l11 11h135z" />
    <glyph glyph-name="uni044C" unicode="&#x44c;" horiz-adv-x="628" 
d="M347 0h-261l-11 11v663l11 11h135l11 -11v-221h115q123 0 190 -64.5t67 -162.5t-67 -162t-190 -64zM358 311h-126v-167h126q41 0 65 24t24 59t-24 59.5t-65 24.5z" />
    <glyph glyph-name="uni044D" unicode="&#x44d;" horiz-adv-x="636" 
d="M45 262l11 11h135l11 -11v-10q0 -52 30.5 -84.5t79.5 -32.5q50 0 81 32.5t31 84.5v23h-152l-11 11v122l11 11h152v14q0 52 -31 84.5t-80 32.5t-80 -32.5t-31 -84.5l-11 -11h-135l-11 11v23q0 61 25 109.5t65 77t85.5 43t92.5 14.5t92.5 -14.5t85.5 -43t65 -77t25 -109.5
v-227q0 -61 -25 -109.5t-65 -77t-86 -43t-93 -14.5q-63 0 -122 24.5t-102 82t-43 137.5v33z" />
    <glyph glyph-name="uni044E" unicode="&#x44e;" horiz-adv-x="927" 
d="M603 700q47 0 93 -14.5t86 -43t65 -77t25 -109.5v-228q0 -60 -25 -108.5t-65 -77t-86 -43t-92 -14.5q-47 0 -92.5 14.5t-85.5 43t-65 77t-25 108.5v49h-104v-266l-11 -11h-135l-11 11v663l11 11h135l11 -11v-247h104v29q0 80 43 137.5t102 82t122 24.5zM715 252v181
q0 51 -31.5 84t-80.5 33t-79.5 -33t-30.5 -84v-181q0 -52 31 -84.5t80 -32.5t80 32.5t31 84.5z" />
    <glyph glyph-name="uni044F" unicode="&#x44f;" horiz-adv-x="671" 
d="M318 685h267l11 -11v-663l-11 -11h-135l-11 11v221h-135l-83 -222l-15 -10h-145l-8 11l103 263q-95 61 -95 184q0 98 66.5 162.5t190.5 64.5zM218 458q0 -35 24 -59.5t66 -24.5h131v167h-131q-42 0 -66 -24t-24 -59z" />
    <glyph glyph-name="uni0451" unicode="&#x451;" horiz-adv-x="660" 
d="M589 150l11 -11v-128l-11 -11h-503l-11 11v663l11 11h501l11 -11v-128l-11 -11h-355v-103h251l11 -11v-122l-11 -11h-251v-138h357zM289 872l11 -11v-117l-11 -11h-135l-11 11v117l11 11h135zM516 872l11 -11v-117l-11 -11h-135l-11 11v117l11 11h135z" />
    <glyph glyph-name="uni0452" unicode="&#x452;" horiz-adv-x="741" 
d="M717 225q0 -109 -61.5 -167t-163.5 -58h-39l-11 10v125l11 11h34q33 0 53 19.5t20 55.5q0 92 -113 92q-49 0 -94 -9v-293l-11 -11h-135l-11 11v529h-161l-10 11v123l10 11h515l10 -11v-123l-10 -11h-197v-92q49 6 109 6q120 0 187.5 -61.5t67.5 -167.5z" />
    <glyph glyph-name="uni0453" unicode="&#x453;" horiz-adv-x="585" 
d="M550 685l10 -11v-128l-10 -11h-318v-524l-11 -11h-135l-11 11v663l11 11h464zM465 872l10 -11l-107 -121l-17 -7h-114l-10 11l78 117l15 11h145z" />
    <glyph glyph-name="uni0454" unicode="&#x454;" horiz-adv-x="636" 
d="M580 273l11 -11v-33q0 -80 -43 -137.5t-102 -82t-122 -24.5q-47 0 -93 14.5t-86 43t-65 77t-25 109.5v227q0 61 25 109.5t65 77t85.5 43t92.5 14.5t92.5 -14.5t85.5 -43t65 -77t25 -109.5v-23l-11 -11h-135l-11 11q0 52 -31 84.5t-80 32.5t-80 -32.5t-31 -84.5v-14h152
l11 -11v-122l-11 -11h-152v-23q0 -52 31 -84.5t81 -32.5q49 0 79.5 32.5t30.5 84.5v10l11 11h135z" />
    <glyph glyph-name="uni0455" unicode="&#x455;" horiz-adv-x="594" 
d="M376 403q180 -51 180 -205q0 -98 -71 -155.5t-193 -57.5q-119 0 -191.5 64.5t-72.5 172.5l11 11h135l11 -11q0 -42 31 -69t84 -27q42 0 70.5 18t28.5 51q0 40 -30 55.5t-121 37.5q-96 23 -149 68.5t-53 137.5q0 98 72.5 152t176.5 54q101 0 174.5 -57t73.5 -164l-11 -11
h-135l-11 11q-2 82 -95 82q-42 0 -65 -17t-23 -47q0 -13 3 -22t11.5 -16.5t17 -12.5t25.5 -10.5t31 -9t39.5 -10.5z" />
    <glyph glyph-name="uni0456" unicode="&#x456;" horiz-adv-x="520" 
d="M338 535v-385h111l11 -11v-128l-11 -11h-378l-11 11v128l11 11h110v385h-110l-11 11v128l11 11h378l11 -11v-128l-11 -11h-111z" />
    <glyph glyph-name="uni0457" unicode="&#x457;" horiz-adv-x="520" 
d="M338 535v-385h111l11 -11v-128l-11 -11h-378l-11 11v128l11 11h110v385h-110l-11 11v128l11 11h378l11 -11v-128l-11 -11h-111zM214 872l11 -11v-117l-11 -11h-135l-11 11v117l11 11h135zM441 872l11 -11v-117l-11 -11h-135l-11 11v117l11 11h135z" />
    <glyph glyph-name="uni0458" unicode="&#x458;" horiz-adv-x="596" 
d="M515 685l11 -11v-458q0 -58 -23.5 -104t-61.5 -72.5t-81.5 -40.5t-86.5 -14q-44 0 -87.5 14t-82 41t-62 72.5t-23.5 103.5v36l11 11h135l11 -11v-15q0 -45 27 -73.5t70 -28.5t70 28.5t27 73.5v298h-152l-11 11v128l11 11h298z" />
    <glyph glyph-name="uni0459" unicode="&#x459;" horiz-adv-x="1019" 
d="M301 535v-187q0 -78 -9.5 -134.5t-34.5 -108t-75.5 -78.5t-126.5 -27h-19l-11 10v129l11 11h12q60 0 81 39.5t21 159.5v325l11 11h452l10 -11v-221h115q123 0 190 -64.5t67 -162.5t-67 -162t-190 -64h-261l-11 11v524h-165zM749 311h-126v-167h126q41 0 65 24t24 59
t-24 59.5t-65 24.5z" />
    <glyph glyph-name="uni045A" unicode="&#x45a;" horiz-adv-x="1010" 
d="M729 0h-261l-11 11v266h-225v-266l-11 -11h-135l-11 11v663l11 11h135l11 -11v-247h225v247l11 11h136l10 -11v-221h115q123 0 190 -64.5t67 -162.5t-67 -162t-190 -64zM740 311h-126v-167h126q41 0 65 24t24 59t-24 59.5t-65 24.5z" />
    <glyph glyph-name="uni045B" unicode="&#x45b;" horiz-adv-x="779" 
d="M550 685l10 -11v-123l-10 -11h-197v-106q54 9 105 9q54 0 99 -10.5t82.5 -34t58.5 -65.5t21 -100v-222l-11 -11h-135l-11 11v195q0 87 -114 87q-58 0 -95 -10v-272l-11 -11h-135l-11 11v529h-161l-10 11v123l10 11h515z" />
    <glyph glyph-name="uni045C" unicode="&#x45c;" horiz-adv-x="644" 
d="M612 11l-8 -11h-153l-14 9l-121 268h-84v-266l-11 -11h-135l-11 11v663l11 11h135l11 -11v-247h88l111 248l16 10h146l7 -11l-143 -321zM477 872l10 -11l-107 -121l-17 -7h-114l-10 11l78 117l15 11h145z" />
    <glyph glyph-name="uni045E" unicode="&#x45e;" horiz-adv-x="630" 
d="M611 674l-280 -663l-10 -11h-145l-11 11l78 181l-228 482l11 11h152l10 -11l134 -296l125 296l10 11h143zM480 875l11 -12v-11q-2 -69 -50.5 -103.5t-118.5 -34.5t-118.5 34.5t-50.5 103.5v11l11 12h100l11 -12v-10q0 -17 12 -27.5t35 -10.5q22 0 34.5 10.5t12.5 27.5v10
l11 12h100z" />
    <glyph glyph-name="uni045F" unicode="&#x45f;" horiz-adv-x="678" 
d="M603 11l-10 -11h-179v-111l-11 -11h-128l-11 11v111h-178l-11 11v663l11 11h135l11 -11v-524h214v524l11 11h136l10 -11v-663z" />
    <glyph glyph-name="uni0490" unicode="&#x490;" horiz-adv-x="574" 
d="M549 796v-250l-10 -11h-307v-524l-11 -11h-135l-11 11v663l11 11h313v111l11 11h128z" />
    <glyph glyph-name="uni0491" unicode="&#x491;" horiz-adv-x="574" 
d="M549 796v-250l-10 -11h-307v-524l-11 -11h-135l-11 11v663l11 11h313v111l11 11h128z" />
    <glyph glyph-name="endash" unicode="&#x2013;" horiz-adv-x="718" 
d="M81 288l-11 11v105l11 11h556l11 -11v-105l-11 -11h-556z" />
    <glyph glyph-name="emdash" unicode="&#x2014;" horiz-adv-x="875" 
d="M81 288l-11 11v105l11 11h713l11 -11v-105l-11 -11h-713z" />
    <glyph glyph-name="quoteleft" unicode="&#x2018;" horiz-adv-x="307" 
d="M81 392l-11 11v149l70 122l11 11h73l11 -11l-69 -125h60l11 -11v-135l-10 -11h-146z" />
    <glyph glyph-name="quoteright" unicode="&#x2019;" horiz-adv-x="307" 
d="M226 685l11 -11v-149l-70 -122l-11 -11h-73l-11 11l69 125h-60l-11 11v135l10 11h146z" />
    <glyph glyph-name="quotesinglbase" unicode="&#x201a;" horiz-adv-x="307" 
d="M226 157l11 -11v-149l-70 -122l-11 -11h-73l-11 11l69 125h-60l-11 11v135l10 11h146z" />
    <glyph glyph-name="quotedblleft" unicode="&#x201c;" horiz-adv-x="536" 
d="M310 392l-11 11v149l70 122l11 11h73l11 -11l-69 -125h60l11 -11v-135l-10 -11h-146zM81 392l-11 11v149l70 122l11 11h73l11 -11l-69 -125h60l11 -11v-135l-10 -11h-146z" />
    <glyph glyph-name="quotedblright" unicode="&#x201d;" horiz-adv-x="536" 
d="M455 685l11 -11v-149l-70 -122l-11 -11h-73l-11 11l69 125h-60l-11 11v135l10 11h146zM226 685l11 -11v-149l-70 -122l-11 -11h-73l-11 11l69 125h-60l-11 11v135l10 11h146z" />
    <glyph glyph-name="quotedblbase" unicode="&#x201e;" horiz-adv-x="536" 
d="M455 157l11 -11v-149l-70 -122l-11 -11h-73l-11 11l69 125h-60l-11 11v135l10 11h146zM226 157l11 -11v-149l-70 -122l-11 -11h-73l-11 11l69 125h-60l-11 11v135l10 11h146z" />
    <glyph glyph-name="dagger" unicode="&#x2020;" horiz-adv-x="417" 
d="M360 556l7 -8v-75l-7 -9h-103v-229l-9 -7h-79l-9 7v229h-103l-7 9v75l7 8h103v122l9 7h79l9 -7v-122h103z" />
    <glyph glyph-name="daggerdbl" unicode="&#x2021;" horiz-adv-x="417" 
d="M360 465h-103v-96h103l7 -9v-75l-7 -8h-103v-122l-9 -7h-79l-9 7v122h-103l-7 8v75l7 9h103v96h-103l-7 9v75l7 8h103v122l9 7h79l9 -7v-122h103l7 -8v-75z" />
    <glyph glyph-name="bullet" unicode="&#x2022;" horiz-adv-x="367" 
d="M297 353q0 -47 -33.5 -80t-81.5 -33q-45 0 -78.5 33.5t-33.5 81.5q0 45 33.5 77t79.5 32q47 -1 80.5 -33.5t33.5 -77.5z" />
    <glyph glyph-name="ellipsis" unicode="&#x2026;" horiz-adv-x="797" 
d="M716 157l11 -11v-135l-10 -11h-146l-11 11v135l10 11h146zM471 157l11 -11v-135l-10 -11h-146l-11 11v135l10 11h146zM226 157l11 -11v-135l-10 -11h-146l-11 11v135l10 11h146z" />
    <glyph glyph-name="perthousand" unicode="&#x2030;" horiz-adv-x="1048" 
d="M198 685q57 0 103.5 -35t46.5 -100v-92q0 -65 -46 -100.5t-103 -35.5t-103 35.5t-46 100.5v92q0 65 46 100t102 35zM252 469v69q0 25 -15 40.5t-39 15.5q-23 0 -37.5 -15.5t-14.5 -40.5v-69q0 -24 15 -39.5t38 -15.5t38 15.5t15 39.5zM313 11l-11 -11h-96l-11 11l338 663
l11 11h96l11 -11zM848 363q57 0 103.5 -35t46.5 -100v-93q0 -65 -46.5 -100t-103.5 -35q-64 0 -100 38q-36 -38 -100 -38q-57 0 -103.5 35t-46.5 100v93q0 65 46.5 100t103.5 35q63 0 100 -39q37 39 100 39zM700 146v71q0 24 -14.5 39.5t-37.5 15.5q-24 0 -39 -15.5
t-15 -39.5v-71q0 -24 15 -39.5t39 -15.5q23 0 37.5 15.5t14.5 39.5zM902 178v39q0 24 -15 39.5t-39 15.5q-23 0 -37.5 -15.5t-14.5 -39.5v-71q0 -24 14.5 -39.5t37.5 -15.5q24 0 39 15.5t15 39.5v32z" />
    <glyph glyph-name="guilsinglleft" unicode="&#x2039;" horiz-adv-x="351" 
d="M295 527l-78 -176l78 -176l-10 -9h-131l-16 6l-82 170v18l82 170l16 7h131z" />
    <glyph glyph-name="guilsinglright" unicode="&#x203a;" horiz-adv-x="351" 
d="M134 351l-78 176l10 10h131l16 -7l82 -170v-18l-82 -170l-16 -6h-131l-10 9z" />
    <glyph glyph-name="Euro" unicode="&#x20ac;" horiz-adv-x="679" 
d="M29 375l-9 9v67l9 10h69q1 78 44.5 134.5t102 80.5t121.5 24q47 0 92.5 -14.5t85.5 -43t65 -77t25 -109.5v-23l-11 -11h-135l-11 11q0 52 -31 84.5t-80 32.5q-42 0 -71.5 -24.5t-37.5 -64.5h121l10 -10v-67l-10 -9h-123v-47h123l10 -9v-68l-10 -9h-123q4 -48 34.5 -77.5
t77.5 -29.5q49 0 79.5 32.5t30.5 84.5v10l11 11h135l11 -11v-33q0 -80 -43 -137.5t-102 -82t-122 -24.5q-47 0 -93 14.5t-86 43t-65 77t-25 109.5v13h-69l-9 9v68l9 9h69v47h-69z" />
    <glyph glyph-name="uni2116" unicode="&#x2116;" horiz-adv-x="1049" 
d="M687 213l11 -11h284l11 11v86l-11 11h-284l-11 -11v-86zM840 685q70 0 118.5 -48.5t48.5 -117.5t-48.5 -118t-118.5 -49q-69 0 -117.5 49t-48.5 118q0 68 48.5 117t117.5 49zM840 459q25 0 42.5 17.5t17.5 42.5q0 24 -17.5 41.5t-42.5 17.5q-24 0 -41.5 -17.5
t-17.5 -41.5q0 -25 17.5 -42.5t41.5 -17.5zM596 685l11 -11v-663l-11 -11h-152l-15 9l-203 408v-406l-11 -11h-129l-11 11v663l11 11h152l15 -8l203 -409v406l11 11h129z" />
    <glyph glyph-name="trademark" unicode="&#x2122;" horiz-adv-x="615" 
d="M263 685l4 -5v-54l-4 -5h-76v-222l-5 -4h-57l-5 4v222h-75l-5 5v54l5 5h218zM561 685l4 -5v-281l-4 -4h-57l-4 4v179l-35 -80l-4 -5h-47l-4 5l-33 79v-178l-5 -4h-56l-5 4v281l5 5h70l6 -4l47 -116l47 116l6 4h69z" />
    <glyph glyph-name="arrowleft" unicode="&#x2190;" horiz-adv-x="619" 
d="M50 361l142 148l14 8h125l8 -8l-79 -94h299l10 -9v-108l-10 -10h-298l78 -92l-8 -9h-125l-14 8l-142 149v17z" />
    <glyph glyph-name="arrowup" unicode="&#x2191;" horiz-adv-x="430" 
d="M58 439l148 142h17l149 -142l8 -14v-125l-9 -8l-92 78v-298l-10 -10h-108l-9 10v299l-94 -79l-8 8v125z" />
    <glyph glyph-name="arrowright" unicode="&#x2192;" horiz-adv-x="619" 
d="M427 509l142 -148v-17l-142 -149l-14 -8h-125l-8 9l78 92h-298l-10 10v108l10 9h299l-79 94l8 8h125z" />
    <glyph glyph-name="arrowdown" unicode="&#x2193;" horiz-adv-x="430" 
d="M206 62l-148 142l-8 14v125l8 8l94 -79v299l9 10h108l10 -10v-298l92 78l9 -8v-125l-8 -14l-149 -142h-17z" />
    <glyph glyph-name="minus" unicode="&#x2212;" horiz-adv-x="600" 
d="M81 288l-11 11v105l11 11h438l11 -11v-105l-11 -11h-438z" />
    <glyph glyph-name="uni2219" unicode="&#x2219;" horiz-adv-x="307" 
d="M226 430l11 -11v-135l-10 -11h-146l-11 11v135l10 11h146z" />
    <glyph glyph-name="dotmath" unicode="&#x22c5;" horiz-adv-x="307" 
d="M226 430l11 -11v-135l-10 -11h-146l-11 11v135l10 11h146z" />
    <glyph glyph-name="commaaccent" unicode="&#xf6c3;" horiz-adv-x="331" 
d="M227 -63l11 -11v-90l-59 -63l-15 -11h-62l-11 11l62 66h-60l-11 11v76l10 11h135z" />
    </font>
</defs>
</svg>
